<svg width="82" height="82" viewBox="0 0 82 82" fill="none" xmlns="http://www.w3.org/2000/svg">
<path d="M41 20.701V80" stroke-width="3" stroke-miterlimit="10" stroke-linecap="round" stroke-linejoin="round"/>
<path d="M56.735 26.294C56.735 34.997 49.69 42.052 41 42.052C32.31 42.052 25.265 34.997 25.265 26.294C25.265 14.719 41 2 41 2C41 2 56.735 14.719 56.735 26.294Z" stroke-width="3" stroke-miterlimit="10" stroke-linecap="round" stroke-linejoin="round"/>
<path d="M30.479 46.972C36.624 53.126 36.624 63.104 30.479 69.257C24.334 75.411 14.372 75.411 8.22698 69.257C0.0539837 61.072 2.19998 40.936 2.19998 40.936C2.19998 40.936 22.306 38.787 30.479 46.972Z" stroke-width="3" stroke-miterlimit="10" stroke-linecap="round" stroke-linejoin="round"/>
<path d="M41 77.861C41 77.861 27.525 60.403 10.092 50.177" stroke-width="3" stroke-miterlimit="10" stroke-linecap="round" stroke-linejoin="round"/>
<path d="M51.412 46.972C45.267 53.126 45.267 63.104 51.412 69.257C57.557 75.41 67.519 75.411 73.664 69.257C81.837 61.072 79.691 40.936 79.691 40.936C79.691 40.936 59.585 38.787 51.412 46.972Z" stroke-width="3" stroke-miterlimit="10" stroke-linecap="round" stroke-linejoin="round"/>
<path d="M40.891 77.861C40.891 77.861 54.366 60.403 71.799 50.177" stroke-width="3" stroke-miterlimit="10" stroke-linecap="round" stroke-linejoin="round"/>
</svg>