<svg width="82" height="82" viewBox="0 0 82 82" fill="none" xmlns="http://www.w3.org/2000/svg">
<path d="M13.503 13.503L68.497 68.497" stroke-width="3" stroke-miterlimit="10" stroke-linecap="round" stroke-linejoin="round"/>
<path d="M41 80C62.5391 80 80 62.5391 80 41C80 19.4609 62.5391 2 41 2C19.4609 2 2 19.4609 2 41C2 62.5391 19.4609 80 41 80Z" stroke-width="3" stroke-miterlimit="10" stroke-linecap="round" stroke-linejoin="round"/>
<path d="M45.6969 24.027C48.2909 21.433 48.2909 17.227 45.6969 14.633C43.1029 12.039 38.8969 12.039 36.3019 14.633C33.7079 17.227 33.7079 21.433 36.3019 24.027C38.8969 26.621 43.1029 26.621 45.6969 24.027Z" stroke-width="3" stroke-miterlimit="10" stroke-linecap="round" stroke-linejoin="round"/>
<path d="M45.6969 57.974C43.1029 55.38 38.8969 55.38 36.3019 57.974C33.7079 60.568 33.7079 64.774 36.3019 67.368C38.8959 69.962 43.1019 69.962 45.6969 67.368C48.2909 64.775 48.2909 60.569 45.6969 57.974Z" stroke-width="3" stroke-miterlimit="10" stroke-linecap="round" stroke-linejoin="round"/>
<path d="M19.329 47.644C22.9978 47.644 25.972 44.6698 25.972 41.001C25.972 37.3322 22.9978 34.358 19.329 34.358C15.6601 34.358 12.686 37.3322 12.686 41.001C12.686 44.6698 15.6601 47.644 19.329 47.644Z" stroke-width="3" stroke-miterlimit="10" stroke-linecap="round" stroke-linejoin="round"/>
<path d="M62.671 47.644C66.3398 47.644 69.314 44.6698 69.314 41.001C69.314 37.3322 66.3398 34.358 62.671 34.358C59.0021 34.358 56.028 37.3322 56.028 41.001C56.028 44.6698 59.0021 47.644 62.671 47.644Z" stroke-width="3" stroke-miterlimit="10" stroke-linecap="round" stroke-linejoin="round"/>
<path d="M24.147 36.183L36.182 24.148" stroke-width="3" stroke-miterlimit="10" stroke-linecap="round" stroke-linejoin="round"/>
<path d="M36.182 57.854L24.147 45.819" stroke-width="3" stroke-miterlimit="10" stroke-linecap="round" stroke-linejoin="round"/>
<path d="M57.853 45.819L45.818 57.854" stroke-width="3" stroke-miterlimit="10" stroke-linecap="round" stroke-linejoin="round"/>
<path d="M45.818 24.148L57.853 36.183" stroke-width="3" stroke-miterlimit="10" stroke-linecap="round" stroke-linejoin="round"/>
</svg>