<svg width="192" height="192" viewBox="0 0 192 192" fill="none" xmlns="http://www.w3.org/2000/svg">
<path d="M156.6 162H35.4C33.9236 161.993 32.5003 161.449 31.3961 160.469C30.2918 159.489 29.5823 158.14 29.4 156.675L18.75 60.675C18.6553 59.8386 18.7376 58.9915 18.9917 58.189C19.2458 57.3865 19.6659 56.6464 20.2247 56.0168C20.7835 55.3873 21.4685 54.8824 22.2353 54.5349C23.002 54.1874 23.8332 54.0052 24.675 54H167.325C168.167 54.0052 168.998 54.1874 169.765 54.5349C170.532 54.8824 171.217 55.3873 171.775 56.0168C172.334 56.6464 172.754 57.3865 173.008 58.189C173.262 58.9915 173.345 59.8386 173.25 60.675L162.6 156.675C162.418 158.14 161.708 159.489 160.604 160.469C159.5 161.449 158.076 161.993 156.6 162V162Z" stroke="currentColor" stroke-linecap="round" stroke-linejoin="round"/>
<path d="M66 78V54C66 46.0435 69.1607 38.4129 74.7868 32.7868C80.4129 27.1607 88.0435 24 96 24C103.956 24 111.587 27.1607 117.213 32.7868C122.839 38.4129 126 46.0435 126 54V78" stroke="currentColor" stroke-linecap="round" stroke-linejoin="round"/>
<circle class="cart-indicator" cx="96" cy="108" r="15" stroke="none"/>
</svg>