<svg width="63" height="82" viewBox="0 0 63 82" xmlns="http://www.w3.org/2000/svg">
<path d="M4.17299 79.999H58.099C59.454 79.999 60.553 78.9 60.553 77.545V4.45205C60.553 3.09705 59.454 1.99805 58.099 1.99805H4.17299C2.81799 1.99805 1.71899 3.09705 1.71899 4.45205V77.545C1.71899 78.9 2.81799 79.999 4.17299 79.999Z" stroke-width="3" stroke-miterlimit="10" stroke-linecap="round" stroke-linejoin="round"/>
<path d="M16.386 2.66504V9.81904C16.386 11.759 17.959 13.332 19.899 13.332H42.373C44.313 13.332 45.886 11.759 45.886 9.81904V2.66504" stroke-width="3" stroke-miterlimit="10" stroke-linecap="round" stroke-linejoin="round"/>
<path d="M7.63538 73.8187H54.6354L54.6354 7.51273H7.63538L7.63538 73.8187Z" stroke-width="3" stroke-miterlimit="10" stroke-linecap="round" stroke-linejoin="round"/>
<path d="M45.886 26.2981H16.386" stroke-width="3" stroke-miterlimit="10" stroke-linecap="round" stroke-linejoin="round"/>
<path d="M45.886 37.2101H16.386" stroke-width="3" stroke-miterlimit="10" stroke-linecap="round" stroke-linejoin="round"/>
<path d="M45.886 48.1211H16.386" stroke-width="3" stroke-miterlimit="10" stroke-linecap="round" stroke-linejoin="round"/>
<path d="M45.886 59.032H16.386" stroke-width="3" stroke-miterlimit="10" stroke-linecap="round" stroke-linejoin="round"/>
</svg>