<svg width="82" height="82" viewBox="0 0 82 82" fill="none" xmlns="http://www.w3.org/2000/svg">
<path d="M72.199 14.2709V62.9789C72.199 65.7959 69.915 68.0809 67.098 68.0809H65.264C63.126 68.0809 61.077 68.9409 59.581 70.4679L50.232 79.9999L40.885 70.4679C39.388 68.9409 37.34 68.0809 35.202 68.0809H7.26702C4.45002 68.0809 2.16602 65.7969 2.16602 62.9789V14.2709C2.16602 11.4529 4.45002 9.16895 7.26702 9.16895H67.097C69.915 9.16995 72.199 11.4539 72.199 14.2709Z" stroke-width="3" stroke-miterlimit="10" stroke-linecap="round" stroke-linejoin="round"/>
<path d="M72.199 55.897H75.065C77.883 55.897 80.167 53.613 80.167 50.796V7.102C80.167 4.284 77.883 2 75.065 2H14.8C11.983 2 9.69901 4.284 9.69901 7.102V8.488" stroke-width="3" stroke-miterlimit="10" stroke-linecap="round" stroke-linejoin="round"/>
<path d="M57.169 43.55C59.4047 43.55 61.217 41.7376 61.217 39.502C61.217 37.2663 59.4047 35.454 57.169 35.454C54.9334 35.454 53.121 37.2663 53.121 39.502C53.121 41.7376 54.9334 43.55 57.169 43.55Z" stroke-width="3" stroke-miterlimit="10" stroke-linecap="round" stroke-linejoin="round"/>
<path d="M40.961 39.502C40.961 41.738 39.149 43.55 36.913 43.55C34.677 43.55 32.865 41.738 32.865 39.502C32.865 37.266 34.677 35.454 36.913 35.454C39.149 35.454 40.961 37.266 40.961 39.502Z" stroke-width="3" stroke-miterlimit="10" stroke-linecap="round" stroke-linejoin="round"/>
<path d="M16.658 43.55C18.8937 43.55 20.706 41.7376 20.706 39.502C20.706 37.2663 18.8937 35.454 16.658 35.454C14.4224 35.454 12.61 37.2663 12.61 39.502C12.61 41.7376 14.4224 43.55 16.658 43.55Z" stroke-width="3" stroke-miterlimit="10" stroke-linecap="round" stroke-linejoin="round"/>
</svg>