<svg width="82" height="82" viewBox="0 0 82 82" xmlns="http://www.w3.org/2000/svg">
<path d="M50.415 26.779C50.633 25.969 50.748 25.118 50.748 24.24C50.748 18.848 46.378 14.477 40.988 14.477C35.597 14.477 31.228 18.848 31.228 24.24C31.228 25.114 31.343 25.962 31.558 26.768" stroke-width="3" stroke-miterlimit="10" stroke-linecap="round" stroke-linejoin="round"/>
<path d="M28.484 12.363C31.3454 12.363 33.665 10.0434 33.665 7.18201C33.665 4.32062 31.3454 2.00101 28.484 2.00101C25.6226 2.00101 23.303 4.32062 23.303 7.18201C23.303 10.0434 25.6226 12.363 28.484 12.363Z" stroke-width="3" stroke-miterlimit="10" stroke-linecap="round" stroke-linejoin="round"/>
<path d="M32.147 10.846L36.242 15.599" stroke-width="3" stroke-miterlimit="10" stroke-linecap="round" stroke-linejoin="round"/>
<path d="M53.493 12.363C56.3544 12.363 58.674 10.0434 58.674 7.18201C58.674 4.32062 56.3544 2.00101 53.493 2.00101C50.6316 2.00101 48.312 4.32062 48.312 7.18201C48.312 10.0434 50.6316 12.363 53.493 12.363Z" stroke-width="3" stroke-miterlimit="10" stroke-linecap="round" stroke-linejoin="round"/>
<path d="M49.83 10.846L45.736 15.599" stroke-width="3" stroke-miterlimit="10" stroke-linecap="round" stroke-linejoin="round"/>
<path d="M35.118 34.445L31.558 26.767C31.558 26.767 3.539 18.553 2.101 30.222C2.087 30.339 2.073 30.454 2.061 30.569C1.19 38.93 9.641 45.138 17.37 41.894L35.118 34.445Z" stroke-width="3" stroke-miterlimit="10" stroke-linecap="round" stroke-linejoin="round"/>
<path d="M6.80697 41C5.93597 49.361 14.387 55.569 22.116 52.324L26.181 50.618" stroke-width="3" stroke-miterlimit="10" stroke-linecap="round" stroke-linejoin="round"/>
<path d="M75.269 41C76.14 49.361 67.689 55.569 59.96 52.324L55.895 50.618" stroke-width="3" stroke-miterlimit="10" stroke-linecap="round" stroke-linejoin="round"/>
<path d="M46.882 34.445L50.416 26.779C50.416 26.779 78.461 18.553 79.899 30.223C79.913 30.34 79.927 30.455 79.938 30.57C80.809 38.931 72.358 45.139 64.629 41.895L46.882 34.445Z" stroke-width="3" stroke-miterlimit="10" stroke-linecap="round" stroke-linejoin="round"/>
<path d="M46.859 34.445C70.642 59.062 40.989 80 40.989 80C40.989 80 11.336 59.062 35.119 34.445H46.859Z" stroke-width="3" stroke-miterlimit="10" stroke-linecap="round" stroke-linejoin="round"/>
<path d="M27.35 47.1H54.726" stroke-width="3" stroke-miterlimit="10" stroke-linecap="round" stroke-linejoin="round"/>
<path d="M27.793 62.953H54.184" stroke-width="3" stroke-miterlimit="10" stroke-linecap="round" stroke-linejoin="round"/>
</svg>