<svg width="82" height="82" viewBox="0 0 82 82" fill="none" xmlns="http://www.w3.org/2000/svg">
<path d="M28.887 1.99899C26.081 2.06799 23.734 3.55199 22.228 6.15599L14.34 19.79L30.777 29.263L39.926 13.449" stroke-width="3" stroke-miterlimit="10" stroke-linecap="round" stroke-linejoin="round"/>
<path d="M62.015 13.417L57.83 6.157C56.32 3.546 53.605 2.062 50.791 2H28.887C31.701 2.061 34.416 3.546 35.926 6.157L45.58 22.894L38.379 27.046L58.646 27.776L67.898 10.025L62.015 13.417Z" stroke-width="3" stroke-miterlimit="10" stroke-linecap="round" stroke-linejoin="round"/>
<path d="M14.555 69.591C16.018 71.986 18.476 73.277 21.484 73.279L37.004 73.291L36.99 54.32L18.952 54.306" stroke-width="3" stroke-miterlimit="10" stroke-linecap="round" stroke-linejoin="round"/>
<path d="M7.878 35.193L3.683 42.448C2.177 45.061 2.249 48.155 3.602 50.622L14.554 69.592C13.2 67.124 13.128 64.031 14.634 61.418L24.301 44.689L31.498 48.849L21.997 30.932L2 31.794L7.878 35.193Z" stroke-width="3" stroke-miterlimit="10" stroke-linecap="round" stroke-linejoin="round"/>
<path d="M79.101 50.229C80.444 47.765 80.333 44.99 78.83 42.384L70.725 28.322L54.303 37.82L63.665 54.064" stroke-width="3" stroke-miterlimit="10" stroke-linecap="round" stroke-linejoin="round"/>
<path d="M52.649 73.21L61.029 73.216C64.045 73.214 66.688 71.605 68.148 69.199L79.1 50.229C77.64 52.635 74.997 54.244 71.981 54.247L52.66 54.239L52.665 45.926L41.898 63.113L52.646 80L52.649 73.21Z" stroke-width="3" stroke-miterlimit="10" stroke-linecap="round" stroke-linejoin="round"/>
</svg>