<svg width="82" height="84" viewBox="0 0 82 84" xmlns="http://www.w3.org/2000/svg">
<path d="M2.1962 80.2637L80.1962 80.2637V24.9067L2.1962 24.9067V80.2637Z" stroke-width="3" stroke-miterlimit="10" stroke-linecap="round" stroke-linejoin="round"/>
<path d="M26.7821 17.5361L55.6111 17.5361V2.26313L26.7821 2.26313L26.7821 17.5361Z" stroke-width="3" stroke-miterlimit="10" stroke-linecap="round" stroke-linejoin="round"/>
<path d="M48.613 17.8879V24.3879" stroke-width="3" stroke-miterlimit="10" stroke-linecap="round" stroke-linejoin="round"/>
<path d="M33.779 17.8879V24.3879" stroke-width="3" stroke-miterlimit="10" stroke-linecap="round" stroke-linejoin="round"/>
<path d="M56.6936 68.0832C65.253 59.5237 65.253 45.6462 56.6936 37.0867C48.1341 28.5273 34.2566 28.5273 25.6971 37.0867C17.1377 45.6462 17.1377 59.5237 25.6971 68.0832C34.2566 76.6426 48.1341 76.6426 56.6936 68.0832Z" stroke-width="3" stroke-miterlimit="10" stroke-linecap="round" stroke-linejoin="round"/>
<path d="M52.2265 63.0378C58.0021 56.9457 57.7455 47.3251 51.6535 41.5495C45.5614 35.7739 35.9408 36.0305 30.1652 42.1226C24.3897 48.2146 24.6462 57.8352 30.7383 63.6108C36.8303 69.3864 46.451 69.1298 52.2265 63.0378Z" stroke-width="3" stroke-miterlimit="10" stroke-linecap="round" stroke-linejoin="round"/>
</svg>