<svg width="24" height="24" viewBox="0 0 24 24" fill="none" xmlns="http://www.w3.org/2000/svg"><path d="M11.298 16.4985C11.2562 16.4985 11.2092 16.488 11.1674 16.4724C11.0419 16.4201 10.9583 16.2947 10.9583 16.1588V8.52272C10.9583 8.38683 11.0419 8.26139 11.1674 8.20912C11.2928 8.15686 11.4392 8.18299 11.5385 8.2823L15.15 11.8364C15.2859 11.9723 15.3591 12.15 15.3591 12.3381C15.3591 12.5263 15.2859 12.7092 15.1448 12.8399L11.5332 16.394C11.4705 16.4567 11.3816 16.4933 11.2928 16.4933L11.298 16.4985ZM11.6378 9.34329V15.3486L14.6692 12.3643L11.6378 9.34329ZM12.3433 19.6867C8.29274 19.6867 5 16.394 5 12.3434C5 8.29275 8.29274 5 12.3433 5C16.394 5 19.6867 8.29275 19.6867 12.3434C19.6867 16.394 16.394 19.6867 12.3433 19.6867ZM12.3433 5.67423C8.66906 5.67423 5.67945 8.66384 5.67945 12.3381C5.67945 16.0124 8.66906 19.002 12.3433 19.002C16.0176 19.002 19.0072 16.0124 19.0072 12.3381C19.0072 8.66384 16.0176 5.67423 12.3433 5.67423Z" fill="black"/></svg>
