<svg width="82" height="82" viewBox="0 0 82 82" fill="none" xmlns="http://www.w3.org/2000/svg">
<path d="M41.314 38.112C51.8 21.353 74.785 32.599 70.344 51.59C65.999 70.173 41.314 80 41.314 80C41.314 80 16.627 70.173 12.284 51.59C7.84301 32.599 30.826 21.353 41.314 38.112Z" stroke-width="3" stroke-miterlimit="10" stroke-linecap="round" stroke-linejoin="round"/>
<path d="M22.342 10.747C22.342 15.578 25.777 19.494 30.015 19.494C34.253 19.494 37.688 15.578 37.688 10.747C37.688 5.916 34.253 2 30.015 2C25.777 2 22.342 5.916 22.342 10.747Z" stroke-width="3" stroke-miterlimit="10" stroke-linecap="round" stroke-linejoin="round"/>
<path d="M44.94 10.747C44.94 15.578 48.375 19.494 52.613 19.494C56.851 19.494 60.286 15.578 60.286 10.747C60.286 5.916 56.851 2 52.613 2C48.375 2 44.94 5.916 44.94 10.747Z" stroke-width="3" stroke-miterlimit="10" stroke-linecap="round" stroke-linejoin="round"/>
<path d="M66.734 17.856C65.353 21.883 67.098 26.137 70.63 27.358C74.163 28.579 78.146 26.303 79.527 22.276C80.908 18.249 79.163 13.994 75.631 12.774C72.098 11.553 68.115 13.829 66.734 17.856Z" stroke-width="3" stroke-miterlimit="10" stroke-linecap="round" stroke-linejoin="round"/>
<path d="M15.266 17.856C16.647 21.883 14.902 26.137 11.37 27.358C7.83702 28.579 3.85401 26.303 2.47301 22.276C1.09201 18.249 2.83702 13.994 6.36902 12.774C9.90202 11.553 13.885 13.829 15.266 17.856Z" stroke-width="3" stroke-miterlimit="10" stroke-linecap="round" stroke-linejoin="round"/>
</svg>