<svg width="82" height="82" viewBox="0 0 82 82" fill="none" xmlns="http://www.w3.org/2000/svg">
<path d="M16.755 38.084V7.795C16.755 4.608 19.363 2 22.55 2H74.205C77.392 2 80 4.608 80 7.795V37.534C80 40.721 77.392 43.329 74.205 43.329H65.583" stroke-width="3" stroke-miterlimit="10" stroke-linecap="round" stroke-linejoin="round"/>
<path d="M17.228 9.57901H79.561" stroke-width="3" stroke-miterlimit="10" stroke-linecap="round" stroke-linejoin="round"/>
<path d="M17.228 19.437H79.561" stroke-width="3" stroke-miterlimit="10" stroke-linecap="round" stroke-linejoin="round"/>
<path d="M24.679 28.511H28.252" stroke-width="3" stroke-miterlimit="10" stroke-linecap="round" stroke-linejoin="round"/>
<path d="M36.348 28.511H39.921" stroke-width="3" stroke-miterlimit="10" stroke-linecap="round" stroke-linejoin="round"/>
<path d="M48.017 28.511H51.59" stroke-width="3" stroke-miterlimit="10" stroke-linecap="round" stroke-linejoin="round"/>
<path d="M9.92401 53.277C9.92401 56.501 12.538 59.115 15.762 59.115C18.986 59.115 21.6 56.501 21.6 53.277C21.6 50.053 18.986 47.439 15.762 47.439C12.537 47.439 9.92401 50.053 9.92401 53.277Z" stroke-width="3" stroke-miterlimit="10" stroke-linecap="round" stroke-linejoin="round"/>
<path d="M59.45 80H7.795C4.608 80 2 77.392 2 74.205V44.467C2 41.28 4.608 38.672 7.795 38.672H59.45C62.637 38.672 65.245 41.28 65.245 44.467V74.206C65.245 77.392 62.637 80 59.45 80Z" stroke-width="3" stroke-miterlimit="10" stroke-linecap="round" stroke-linejoin="round"/>
<path d="M9.92401 69.662H14.256" stroke-width="3" stroke-miterlimit="10" stroke-linecap="round" stroke-linejoin="round"/>
<path d="M23.811 69.662H28.143" stroke-width="3" stroke-miterlimit="10" stroke-linecap="round" stroke-linejoin="round"/>
<path d="M37.699 69.662H42.031" stroke-width="3" stroke-miterlimit="10" stroke-linecap="round" stroke-linejoin="round"/>
<path d="M34.348 49.104H55.919" stroke-width="3" stroke-miterlimit="10" stroke-linecap="round" stroke-linejoin="round"/>
<path d="M34.348 56.536H55.919" stroke-width="3" stroke-miterlimit="10" stroke-linecap="round" stroke-linejoin="round"/>
<path d="M51.587 69.662H55.919" stroke-width="3" stroke-miterlimit="10" stroke-linecap="round" stroke-linejoin="round"/>
</svg>