<svg width="82" height="82" viewBox="0 0 82 82" fill="none" xmlns="http://www.w3.org/2000/svg">
<path d="M54.761 74.333H77.454" stroke-width="3" stroke-miterlimit="10" stroke-linecap="round" stroke-linejoin="round"/>
<path d="M4.16205 31.607V79.999H77.896V31.607" stroke-width="3" stroke-miterlimit="10" stroke-linecap="round" stroke-linejoin="round"/>
<path d="M54.273 79.999V32.008" stroke-width="3" stroke-miterlimit="10" stroke-linecap="round" stroke-linejoin="round"/>
<path d="M19.01 62H10.401V74.249H19.01V62Z" stroke-width="3" stroke-miterlimit="10" stroke-linecap="round" stroke-linejoin="round"/>
<path d="M33.542 62H24.933V74.249H33.542V62Z" stroke-width="3" stroke-miterlimit="10" stroke-linecap="round" stroke-linejoin="round"/>
<path d="M48.074 62H39.465V74.249H48.074V62Z" stroke-width="3" stroke-miterlimit="10" stroke-linecap="round" stroke-linejoin="round"/>
<path d="M11.882 2.36899V26.228" stroke-width="3" stroke-miterlimit="10" stroke-linecap="round" stroke-linejoin="round"/>
<path d="M21.655 2.51501V26.374" stroke-width="3" stroke-miterlimit="10" stroke-linecap="round" stroke-linejoin="round"/>
<path d="M31.405 2.51501V26.374" stroke-width="3" stroke-miterlimit="10" stroke-linecap="round" stroke-linejoin="round"/>
<path d="M41.168 2.51501V26.374" stroke-width="3" stroke-miterlimit="10" stroke-linecap="round" stroke-linejoin="round"/>
<path d="M50.905 2.51501V26.374" stroke-width="3" stroke-miterlimit="10" stroke-linecap="round" stroke-linejoin="round"/>
<path d="M60.655 2.51501V26.374" stroke-width="3" stroke-miterlimit="10" stroke-linecap="round" stroke-linejoin="round"/>
<path d="M70.405 2.51501V26.374" stroke-width="3" stroke-miterlimit="10" stroke-linecap="round" stroke-linejoin="round"/>
<path d="M11.905 27.402C11.905 30.078 9.72203 32.247 7.03003 32.247C4.33803 32.247 2.15503 30.078 2.15503 27.402L5.28003 2H77.28L80.155 27.402C80.155 30.078 77.972 32.247 75.28 32.247C72.588 32.247 70.405 30.078 70.405 27.402" stroke-width="3" stroke-miterlimit="10" stroke-linecap="round" stroke-linejoin="round"/>
<path d="M21.655 27.402C21.655 30.078 19.472 32.247 16.78 32.247C14.088 32.247 11.905 30.078 11.905 27.402" stroke-width="3" stroke-miterlimit="10" stroke-linecap="round" stroke-linejoin="round"/>
<path d="M31.405 27.402C31.405 30.078 29.222 32.247 26.53 32.247C23.838 32.247 21.655 30.078 21.655 27.402" stroke-width="3" stroke-miterlimit="10" stroke-linecap="round" stroke-linejoin="round"/>
<path d="M41.155 27.402C41.155 30.078 38.972 32.247 36.28 32.247C33.588 32.247 31.405 30.078 31.405 27.402" stroke-width="3" stroke-miterlimit="10" stroke-linecap="round" stroke-linejoin="round"/>
<path d="M50.905 27.402C50.905 30.078 48.722 32.247 46.03 32.247C43.338 32.247 41.155 30.078 41.155 27.402" stroke-width="3" stroke-miterlimit="10" stroke-linecap="round" stroke-linejoin="round"/>
<path d="M60.655 27.402C60.655 30.078 58.472 32.247 55.78 32.247C53.088 32.247 50.905 30.078 50.905 27.402" stroke-width="3" stroke-miterlimit="10" stroke-linecap="round" stroke-linejoin="round"/>
<path d="M70.405 27.402C70.405 30.078 68.222 32.247 65.53 32.247C62.838 32.247 60.655 30.078 60.655 27.402" stroke-width="3" stroke-miterlimit="10" stroke-linecap="round" stroke-linejoin="round"/>
<path d="M4.68103 56.249H53.794" stroke-width="3" stroke-miterlimit="10" stroke-linecap="round" stroke-linejoin="round"/>
<path d="M2.78003 26.874H79.343" stroke-width="3" stroke-miterlimit="10" stroke-linecap="round" stroke-linejoin="round"/>
<path d="M72.718 55.803V57.843" stroke-width="3" stroke-miterlimit="10" stroke-linecap="round" stroke-linejoin="round"/>
</svg>