<svg width="82" height="82" viewBox="0 0 82 82" fill="none" xmlns="http://www.w3.org/2000/svg">
<path d="M65.108 47.938C59.301 47.188 54.903 47.892 51.556 49.382C51.516 46.338 50.396 38.769 41 33.182C31.604 38.769 30.484 46.337 30.444 49.382C27.097 47.893 22.699 47.188 16.892 47.938C16.892 60.177 24.388 72.572 40.999 72.572L41.006 80V72.572C57.613 72.569 65.108 60.176 65.108 47.938Z" stroke-width="3" stroke-miterlimit="10" stroke-linecap="round" stroke-linejoin="round"/>
<path d="M60.68 63.126C71.442 62.581 80 53.682 80 42.784C80 31.935 71.512 23.093 60.818 22.475C60.826 22.265 60.847 22.058 60.847 21.846C60.846 10.886 51.961 2 41 2C30.039 2 21.153 10.885 21.153 21.846C21.153 22.058 21.173 22.265 21.181 22.475C10.488 23.093 2 31.935 2 42.784C2 53.663 10.529 62.55 21.265 63.123" stroke-width="3" stroke-miterlimit="10" stroke-linecap="round" stroke-linejoin="round"/>
</svg>