<svg width="82" height="85" viewBox="0 0 82 85" fill="none" xmlns="http://www.w3.org/2000/svg">
<path d="M39.5988 21.968C59.496 16.6327 74.9376 9.74059 74.0885 6.57402C73.2394 3.40745 56.4212 5.16556 36.5239 10.5009C16.6267 15.8362 1.18515 22.7283 2.03425 25.8949C2.88335 29.0615 19.7016 27.3034 39.5988 21.968Z" stroke-width="3" stroke-miterlimit="10" stroke-linecap="round" stroke-linejoin="round"/>
<path d="M80.0001 49.143C80.0001 52.421 63.7331 55.079 43.6681 55.079C23.6031 55.079 7.33606 52.421 7.33606 49.143C7.33606 45.865 23.6031 43.207 43.6681 43.207C63.7331 43.207 80.0001 45.865 80.0001 49.143Z" stroke-width="3" stroke-miterlimit="10" stroke-linecap="round" stroke-linejoin="round"/>
<path d="M2.03308 25.894L4.83808 36.369C5.68608 39.536 22.5031 37.778 42.4001 32.444C62.2981 27.109 77.7401 20.217 76.8921 17.05L74.0871 6.57501" stroke-width="3" stroke-miterlimit="10" stroke-linecap="round" stroke-linejoin="round"/>
<path d="M80.0001 49.143V77.063C80.0001 80.342 63.7331 83 43.6681 83C23.6031 83 7.33606 80.342 7.33606 77.064V49.144" stroke-width="3" stroke-miterlimit="10" stroke-linecap="round" stroke-linejoin="round"/>
</svg>