<svg width="56" height="82" viewBox="0 0 56 82" xmlns="http://www.w3.org/2000/svg">
<path d="M10.849 32.249V19.151C10.849 9.679 18.528 2 28 2C37.472 2 45.151 9.679 45.151 19.151V32.249" stroke-width="3" stroke-miterlimit="10" stroke-linecap="round" stroke-linejoin="round"/>
<path d="M16.959 32.249V18.953C16.959 12.855 21.902 7.91199 28 7.91199C34.098 7.91199 39.041 12.855 39.041 18.953V32.25" stroke-width="3" stroke-miterlimit="10" stroke-linecap="round" stroke-linejoin="round"/>
<path d="M32.705 50.446C32.705 47.847 30.598 45.741 28 45.741C25.402 45.741 23.295 47.848 23.295 50.446C23.295 52.203 24.26 53.733 25.688 54.541V59.031C25.688 60.308 26.723 61.343 28 61.343C29.277 61.343 30.312 60.308 30.312 59.031V54.541C31.74 53.733 32.705 52.203 32.705 50.446Z" stroke-width="3" stroke-miterlimit="10" stroke-linecap="round" stroke-linejoin="round"/>
<path d="M28 80C13.676 80 2.06403 68.388 2.06403 54.064V37.574C2.06403 34.831 4.28803 32.606 7.03203 32.606H48.968C51.711 32.606 53.935 34.83 53.935 37.574V54.064C53.936 68.388 42.324 80 28 80Z" stroke-width="3" stroke-miterlimit="10" stroke-linecap="round" stroke-linejoin="round"/>
</svg>