<svg width="92" height="82" viewBox="0 0 92 82" xmlns="http://www.w3.org/2000/svg">
<path d="M45.743 80C53.4938 80 59.777 62.5391 59.777 41C59.777 19.4609 53.4938 2 45.743 2C37.9923 2 31.709 19.4609 31.709 41C31.709 62.5391 37.9923 80 45.743 80Z" stroke-width="3" stroke-miterlimit="10" stroke-linecap="round" stroke-linejoin="round"/>
<path d="M84.3465 63.11C88.2451 56.3486 74.2367 40.9681 53.0579 28.7566C31.879 16.5451 11.5498 12.1269 7.65128 18.8882C3.75274 25.6496 17.7612 41.0302 38.94 53.2417C60.1188 65.4532 80.448 69.8714 84.3465 63.11Z" stroke-width="3" stroke-miterlimit="10" stroke-linecap="round" stroke-linejoin="round"/>
<path d="M53.0579 53.2436C74.2367 41.0321 88.2451 25.6515 84.3465 18.8901C80.448 12.1288 60.1188 16.547 38.94 28.7585C17.7612 40.97 3.75274 56.3505 7.65128 63.1119C11.5498 69.8732 31.879 65.4551 53.0579 53.2436Z" stroke-width="3" stroke-miterlimit="10" stroke-linecap="round" stroke-linejoin="round"/>
</svg>