<svg width="72" height="82" viewBox="0 0 72 82" xmlns="http://www.w3.org/2000/svg">
<path d="M35.782 79.861C54.4216 79.861 69.532 64.7506 69.532 46.111C69.532 27.4714 54.4216 12.361 35.782 12.361C17.1424 12.361 2.03198 27.4714 2.03198 46.111C2.03198 64.7506 17.1424 79.861 35.782 79.861Z" stroke-width="3" stroke-miterlimit="10" stroke-linecap="round" stroke-linejoin="round"/>
<path d="M35.782 12.361C38.6428 12.361 40.962 10.0418 40.962 7.18098C40.962 4.32014 38.6428 2.00098 35.782 2.00098C32.9212 2.00098 30.602 4.32014 30.602 7.18098C30.602 10.0418 32.9212 12.361 35.782 12.361Z" stroke-width="3" stroke-miterlimit="10" stroke-linecap="round" stroke-linejoin="round"/>
<path d="M35.782 74.555C51.4912 74.555 64.226 61.8202 64.226 46.111C64.226 30.4018 51.4912 17.667 35.782 17.667C20.0728 17.667 7.33801 30.4018 7.33801 46.111C7.33801 61.8202 20.0728 74.555 35.782 74.555Z" stroke-width="3" stroke-miterlimit="10" stroke-linecap="round" stroke-linejoin="round"/>
<path d="M35.617 18.2889V23.3709" stroke-width="3" stroke-miterlimit="10" stroke-linecap="round" stroke-linejoin="round"/>
<path d="M35.617 69.3889V74.4699" stroke-width="3" stroke-miterlimit="10" stroke-linecap="round" stroke-linejoin="round"/>
<path d="M7.86597 45.574H12.947" stroke-width="3" stroke-miterlimit="10" stroke-linecap="round" stroke-linejoin="round"/>
<path d="M58.857 45.574H63.939" stroke-width="3" stroke-miterlimit="10" stroke-linecap="round" stroke-linejoin="round"/>
<path d="M15.837 26.884L19.431 30.477" stroke-width="3" stroke-miterlimit="10" stroke-linecap="round" stroke-linejoin="round"/>
<path d="M51.97 63.017L55.563 66.61" stroke-width="3" stroke-miterlimit="10" stroke-linecap="round" stroke-linejoin="round"/>
<path d="M15.508 65.7989L19.101 62.2059" stroke-width="3" stroke-miterlimit="10" stroke-linecap="round" stroke-linejoin="round"/>
<path d="M51.564 29.743L55.157 26.15" stroke-width="3" stroke-miterlimit="10" stroke-linecap="round" stroke-linejoin="round"/>
<path d="M48.122 33.875L39.637 50.4L23.111 58.885L31.597 42.36L48.122 33.875Z" stroke-width="3" stroke-miterlimit="10" stroke-linecap="round" stroke-linejoin="round"/>
</svg>