<svg width="81" height="82" viewBox="0 0 81 82" fill="none" xmlns="http://www.w3.org/2000/svg">
<path d="M57.028 16.93C57.028 16.93 48.806 4.84399 42.245 7.95399C32.877 12.394 44.602 26.532 55.787 30.533" stroke-width="3" stroke-miterlimit="10" stroke-linecap="round" stroke-linejoin="round"/>
<path d="M46.225 68.517L49.047 76.802C49.699 78.716 51.476 80 53.474 80H67.586C69.712 80 71.435 78.253 71.435 76.099C71.435 71.729 67.94 68.186 63.629 68.186H58.835C59.739 65.943 60.342 63.562 60.591 61.085C65.765 60.634 78.451 58.423 78.501 47.572C78.559 34.607 66.845 30.6 66.845 30.6C66.845 30.6 71.16 20.578 71.966 11.493C73.009 -0.267015 58.822 -1.56001 57.779 10.201C57.392 14.565 56.568 21.538 59.3 29.786C59.3 29.786 51.975 30.814 48.323 36.083C43.472 32.849 37.534 30.94 31.114 30.94C14.763 30.94 1.50702 43.284 1.50702 58.511C1.50702 67.201 5.82802 74.947 12.575 80.001H33.608C35.733 80.001 37.457 78.254 37.457 76.1C37.457 72.119 34.554 68.834 30.778 68.279" stroke-width="3" stroke-miterlimit="10" stroke-linecap="round" stroke-linejoin="round"/>
<path d="M48.039 74.422C48.039 74.422 44.475 77.567 37.456 77.41" stroke-width="3" stroke-miterlimit="10" stroke-linecap="round" stroke-linejoin="round"/>
<path d="M6.31301 43.4C3.41301 42.26 1.39901 39.359 1.50401 36.028C1.63701 31.809 5.11901 28.499 9.28101 28.634C12.736 28.746 15.574 31.198 16.361 34.441" stroke-width="3" stroke-miterlimit="10" stroke-linecap="round" stroke-linejoin="round"/>
</svg>