<svg width="82" height="82" viewBox="0 0 82 82" fill="none" xmlns="http://www.w3.org/2000/svg">
<path d="M80 2H2V80H80V2Z" stroke-width="3" stroke-miterlimit="10" stroke-linecap="round" stroke-linejoin="round"/>
<path d="M29.696 72.411C40.7345 72.411 49.683 63.4625 49.683 52.424C49.683 41.3855 40.7345 32.437 29.696 32.437C18.6575 32.437 9.70898 41.3855 9.70898 52.424C9.70898 63.4625 18.6575 72.411 29.696 72.411Z" stroke-width="3" stroke-miterlimit="10" stroke-linecap="round" stroke-linejoin="round"/>
<path d="M48.589 44.806C51.025 43.129 53.978 42.147 57.159 42.147C65.516 42.147 72.291 48.922 72.291 57.279C72.291 65.636 65.516 72.411 57.159 72.411C52.098 72.411 47.618 69.927 44.871 66.112" stroke-width="3" stroke-miterlimit="10" stroke-linecap="round" stroke-linejoin="round"/>
<path d="M20.5 8.5L8.79199 20.208" stroke-width="3" stroke-miterlimit="10" stroke-linecap="round" stroke-linejoin="round"/>
<path d="M33.583 8.5L8.79199 33.292" stroke-width="3" stroke-miterlimit="10" stroke-linecap="round" stroke-linejoin="round"/>
<path d="M46.667 8.5L27.729 27.438" stroke-width="3" stroke-miterlimit="10" stroke-linecap="round" stroke-linejoin="round"/>
<path d="M59.75 8.5L40.083 28.167" stroke-width="3" stroke-miterlimit="10" stroke-linecap="round" stroke-linejoin="round"/>
<path d="M72.833 21.583L59.75 34.667" stroke-width="3" stroke-miterlimit="10" stroke-linecap="round" stroke-linejoin="round"/>
<path d="M72.833 8.5L49.167 32.167" stroke-width="3" stroke-miterlimit="10" stroke-linecap="round" stroke-linejoin="round"/>
</svg>