<svg width="82" height="82" viewBox="0 0 82 82" fill="none" xmlns="http://www.w3.org/2000/svg">
<path d="M13.503 13.503L68.497 68.497" stroke-width="3" stroke-miterlimit="10" stroke-linecap="round" stroke-linejoin="round"/>
<path d="M41 80C62.5391 80 80 62.5391 80 41C80 19.4609 62.5391 2 41 2C19.4609 2 2 19.4609 2 41C2 62.5391 19.4609 80 41 80Z" stroke-width="3" stroke-miterlimit="10" stroke-linecap="round" stroke-linejoin="round"/>
<path d="M40.84 65.376C45.6841 65.376 49.611 54.4629 49.611 41.001C49.611 27.5391 45.6841 16.626 40.84 16.626C35.9959 16.626 32.069 27.5391 32.069 41.001C32.069 54.4629 35.9959 65.376 40.84 65.376Z" stroke-width="3" stroke-miterlimit="10" stroke-linecap="round" stroke-linejoin="round"/>
<path d="M46.044 33.718C59.212 41.46 67.628 50.996 64.842 55.019C62.056 59.041 49.123 56.026 35.955 48.285C22.787 40.543 14.371 31.007 17.157 26.984C19.943 22.961 32.876 25.976 46.044 33.718Z" stroke-width="3" stroke-miterlimit="10" stroke-linecap="round" stroke-linejoin="round"/>
<path d="M35.956 33.718C22.788 41.46 14.372 50.996 17.158 55.019C19.944 59.042 32.877 56.026 46.044 48.285C59.212 40.543 67.628 31.007 64.842 26.984C62.056 22.961 49.123 25.976 35.956 33.718Z" stroke-width="3" stroke-miterlimit="10" stroke-linecap="round" stroke-linejoin="round"/>
</svg>