<svg width="82" height="82" viewBox="0 0 82 82" xmlns="http://www.w3.org/2000/svg">
<path d="M41 51.45C46.7714 51.45 51.45 46.7714 51.45 41C51.45 35.2286 46.7714 30.55 41 30.55C35.2286 30.55 30.55 35.2286 30.55 41C30.55 46.7714 35.2286 51.45 41 51.45Z" stroke-width="3" stroke-miterlimit="10" stroke-linecap="round" stroke-linejoin="round"/>
<path d="M30.965 37.299C25.963 38.123 19.039 35.286 13.415 29.662C8.93303 25.18 8.93303 17.913 13.415 13.431C17.738 9.10799 24.651 8.95499 29.158 12.971" stroke-width="3" stroke-miterlimit="10" stroke-linecap="round" stroke-linejoin="round"/>
<path d="M31.287 45.479C28.333 49.598 21.431 52.489 13.477 52.489C7.138 52.488 2 47.35 2 41.011C2 34.898 6.78 29.9 12.807 29.553" stroke-width="3" stroke-miterlimit="10" stroke-linecap="round" stroke-linejoin="round"/>
<path d="M37.298 51.035C38.122 56.036 35.285 62.961 29.661 68.585C25.179 73.067 17.912 73.067 13.43 68.585C9.10701 64.262 8.95401 57.349 12.97 52.842" stroke-width="3" stroke-miterlimit="10" stroke-linecap="round" stroke-linejoin="round"/>
<path d="M45.478 50.713C49.597 53.667 52.488 60.569 52.488 68.523C52.488 74.862 47.35 80 41.011 80C34.897 80 29.9 75.22 29.553 69.193" stroke-width="3" stroke-miterlimit="10" stroke-linecap="round" stroke-linejoin="round"/>
<path d="M51.035 44.701C56.036 43.877 62.961 46.714 68.585 52.338C73.067 56.82 73.067 64.087 68.585 68.569C64.262 72.892 57.349 73.045 52.842 69.029" stroke-width="3" stroke-miterlimit="10" stroke-linecap="round" stroke-linejoin="round"/>
<path d="M50.713 36.521C53.667 32.402 60.569 29.511 68.523 29.511C74.862 29.512 80 34.65 80 40.989C80 47.102 75.22 52.1 69.193 52.447" stroke-width="3" stroke-miterlimit="10" stroke-linecap="round" stroke-linejoin="round"/>
<path d="M44.701 30.965C43.877 25.964 46.714 19.039 52.338 13.415C56.82 8.933 64.087 8.933 68.569 13.415C72.892 17.738 73.045 24.651 69.029 29.158" stroke-width="3" stroke-miterlimit="10" stroke-linecap="round" stroke-linejoin="round"/>
<path d="M36.521 31.287C32.402 28.333 29.511 21.431 29.511 13.477C29.512 7.138 34.65 2 40.989 2C47.102 2 52.1 6.78 52.447 12.807" stroke-width="3" stroke-miterlimit="10" stroke-linecap="round" stroke-linejoin="round"/>
</svg>