<svg width="82" height="82" viewBox="0 0 82 82" fill="none" xmlns="http://www.w3.org/2000/svg">
<path d="M14.875 2L14.896 12.004L24.862 12.025" stroke-width="3" stroke-miterlimit="10" stroke-linecap="round" stroke-linejoin="round"/>
<path d="M15.691 11.327C22.503 5.511 31.341 2 41 2C62.539 2 80 19.461 80 41C80 49.077 77.545 56.581 73.339 62.805" stroke-width="3" stroke-miterlimit="10" stroke-linecap="round" stroke-linejoin="round"/>
<path d="M66.864 70.191C59.981 76.294 50.923 80 41 80C19.461 80 2 62.539 2 41C2 32.923 4.455 25.419 8.661 19.195" stroke-width="3" stroke-miterlimit="10" stroke-linecap="round" stroke-linejoin="round"/>
<path d="M67.063 80L67.043 69.975H57.076" stroke-width="3" stroke-miterlimit="10" stroke-linecap="round" stroke-linejoin="round"/>
<path d="M52.386 62.557H29.614C28.509 62.557 27.614 61.662 27.614 60.557V34.125C27.614 29.707 31.196 26.125 35.614 26.125H46.386C50.804 26.125 54.386 29.707 54.386 34.125V60.558C54.386 61.662 53.491 62.557 52.386 62.557Z" stroke-width="3" stroke-miterlimit="10" stroke-linecap="round" stroke-linejoin="round"/>
<path d="M47.485 26.125V17.443H34.515V26.125" stroke-width="3" stroke-miterlimit="10" stroke-linecap="round" stroke-linejoin="round"/>
</svg>