<svg width="82" height="82" viewBox="0 0 82 82" xmlns="http://www.w3.org/2000/svg">
<path d="M40.9999 59.9699L56.2119 75.1819L78.1379 79.9559C79.3049 80.2099 80.2099 79.3049 79.9559 78.1379L75.1819 56.2119L60.2349 41.2639" stroke-width="3" stroke-miterlimit="10" stroke-linecap="round" stroke-linejoin="round"/>
<path d="M40.704 21.7319L23.563 4.59094C20.473 1.50094 15.844 1.11994 13.225 3.73894L3.73996 13.2239C1.11996 15.8429 1.50196 20.4719 4.59196 23.5619L21.827 40.7969" stroke-width="3" stroke-miterlimit="10" stroke-linecap="round" stroke-linejoin="round"/>
<path d="M27.249 9.31299L9.31299 27.249" stroke-width="3" stroke-miterlimit="10" stroke-linecap="round" stroke-linejoin="round"/>
<path d="M31.275 13.339L13.339 31.275" stroke-width="3" stroke-miterlimit="10" stroke-linecap="round" stroke-linejoin="round"/>
<path d="M74.268 56.3319L56.332 74.2679" stroke-width="3" stroke-miterlimit="10" stroke-linecap="round" stroke-linejoin="round"/>
<path d="M54.179 47.3829L68.263 61.4659" stroke-width="3" stroke-miterlimit="10" stroke-linecap="round" stroke-linejoin="round"/>
<path d="M47.3829 54.178L61.4669 68.262" stroke-width="3" stroke-miterlimit="10" stroke-linecap="round" stroke-linejoin="round"/>
<path d="M25.991 19.1949L34.535 27.7389" stroke-width="3" stroke-miterlimit="10" stroke-linecap="round" stroke-linejoin="round"/>
<path d="M19.1959 25.991L27.7389 34.534" stroke-width="3" stroke-miterlimit="10" stroke-linecap="round" stroke-linejoin="round"/>
<path d="M78.117 71.3209L71.322 78.1169" stroke-width="3" stroke-miterlimit="10" stroke-linecap="round" stroke-linejoin="round"/>
<path d="M25.788 75.1829L3.86199 79.9569C2.69499 80.2109 1.78999 79.3059 2.04399 78.1389L6.81799 56.2129L58.438 4.59289C61.528 1.50289 66.156 1.12189 68.776 3.74089L78.261 13.2259C80.88 15.8449 80.499 20.4739 77.409 23.5639L25.788 75.1829Z" stroke-width="3" stroke-miterlimit="10" stroke-linecap="round" stroke-linejoin="round"/>
<path d="M54.751 9.31299L72.687 27.249" stroke-width="3" stroke-miterlimit="10" stroke-linecap="round" stroke-linejoin="round"/>
<path d="M50.725 13.339L68.661 31.275" stroke-width="3" stroke-miterlimit="10" stroke-linecap="round" stroke-linejoin="round"/>
<path d="M7.73193 56.3319L25.6679 74.2679" stroke-width="3" stroke-miterlimit="10" stroke-linecap="round" stroke-linejoin="round"/>
<path d="M55.9149 19.2889L13.7369 61.4659" stroke-width="3" stroke-miterlimit="10" stroke-linecap="round" stroke-linejoin="round"/>
<path d="M62.711 26.084L20.533 68.262" stroke-width="3" stroke-miterlimit="10" stroke-linecap="round" stroke-linejoin="round"/>
<path d="M3.88293 71.3209L10.6779 78.1169" stroke-width="3" stroke-miterlimit="10" stroke-linecap="round" stroke-linejoin="round"/>
</svg>