<svg width="49" height="82" viewBox="0 0 49 82" xmlns="http://www.w3.org/2000/svg">
<path d="M30.058 26.426H18.486C13.346 26.426 9.17899 22.259 9.17899 17.119C9.17899 11.979 13.346 7.81198 18.486 7.81198H30.058C35.198 7.81198 39.365 11.979 39.365 17.119C39.364 22.259 35.198 26.426 30.058 26.426Z" stroke-width="3" stroke-miterlimit="10" stroke-linecap="round" stroke-linejoin="round"/>
<path d="M31.522 32.452C39.99 32.452 46.855 25.587 46.855 17.119C46.855 8.65099 39.99 1.786 31.522 1.786H17.021C8.55299 1.786 1.68799 8.65099 1.68799 17.119C1.68799 25.587 8.55299 32.452 17.021 32.452H20.304V75.818C20.304 78.009 22.08 79.786 24.272 79.786C26.463 79.786 28.24 78.01 28.24 75.818V73.474H33.967V68.017H28.24V62.805H33.967V57.348H28.24V32.452H31.522Z" stroke-width="3" stroke-miterlimit="10" stroke-linecap="round" stroke-linejoin="round"/>
</svg>