<svg width="82" height="82" viewBox="0 0 82 82" fill="none" xmlns="http://www.w3.org/2000/svg">
<path d="M80.01 2H1.98999V80.02H80.01V2Z" stroke-width="3" stroke-miterlimit="10" stroke-linecap="round" stroke-linejoin="round"/>
<path d="M11.8108 33.5L11.8108 69.734H70.1898V33.5L11.8108 33.5Z" stroke-width="3" stroke-miterlimit="10" stroke-linecap="round" stroke-linejoin="round"/>
<path d="M1.98999 23.817H79.335" stroke-width="3" stroke-miterlimit="10" stroke-linecap="round" stroke-linejoin="round"/>
<path d="M25.265 17.459C27.7277 17.459 29.724 15.4626 29.724 13C29.724 10.5374 27.7277 8.541 25.265 8.541C22.8024 8.541 20.806 10.5374 20.806 13C20.806 15.4626 22.8024 17.459 25.265 17.459Z" stroke-width="3" stroke-miterlimit="10" stroke-linecap="round" stroke-linejoin="round"/>
<path d="M41 17.459C43.4627 17.459 45.459 15.4626 45.459 13C45.459 10.5374 43.4627 8.541 41 8.541C38.5374 8.541 36.541 10.5374 36.541 13C36.541 15.4626 38.5374 17.459 41 17.459Z" stroke-width="3" stroke-miterlimit="10" stroke-linecap="round" stroke-linejoin="round"/>
<path d="M56.735 17.459C59.1976 17.459 61.194 15.4626 61.194 13C61.194 10.5374 59.1976 8.541 56.735 8.541C54.2724 8.541 52.276 10.5374 52.276 13C52.276 15.4626 54.2724 17.459 56.735 17.459Z" stroke-width="3" stroke-miterlimit="10" stroke-linecap="round" stroke-linejoin="round"/>
</svg>