<svg width="82" height="52" viewBox="0 0 82 52" fill="none" xmlns="http://www.w3.org/2000/svg">
<path d="M9.52498 33.788C7.52798 32.371 7.06498 29.614 8.48998 27.629L10.552 24.758C11.978 22.773 14.752 22.313 16.749 23.729C18.746 25.146 19.21 27.903 17.784 29.888L15.722 32.759C14.297 34.744 11.523 35.205 9.52498 33.788Z" stroke-width="3" stroke-miterlimit="10" stroke-linecap="round" stroke-linejoin="round"/>
<path d="M15.821 40.223C13.824 38.806 13.36 36.049 14.786 34.065L18.722 28.585C20.148 26.6 22.922 26.14 24.919 27.556C26.916 28.973 27.379 31.73 25.954 33.715L22.018 39.195C20.592 41.179 17.818 41.639 15.821 40.223Z" stroke-width="3" stroke-miterlimit="10" stroke-linecap="round" stroke-linejoin="round"/>
<path d="M23.053 45.353C21.056 43.936 20.592 41.179 22.018 39.194L25.954 33.714C27.379 31.729 30.154 31.269 32.151 32.685C34.148 34.102 34.612 36.859 33.186 38.844L29.25 44.324C27.825 46.309 25.05 46.769 23.053 45.353Z" stroke-width="3" stroke-miterlimit="10" stroke-linecap="round" stroke-linejoin="round"/>
<path d="M31.222 49.178C29.225 47.761 28.761 45.004 30.187 43.02L32.249 40.149C33.675 38.164 36.449 37.704 38.446 39.121C40.443 40.538 40.907 43.295 39.481 45.279L37.42 48.15C35.994 50.134 33.22 50.595 31.222 49.178Z" stroke-width="3" stroke-miterlimit="10" stroke-linecap="round" stroke-linejoin="round"/>
<path d="M49.994 30.942L57.012 35.825C59.022 37.224 59.51 39.977 58.103 41.974C56.696 43.971 53.925 44.457 51.915 43.058L44.897 38.175" stroke-width="3" stroke-miterlimit="10" stroke-linecap="round" stroke-linejoin="round"/>
<path d="M55.09 23.709L64.31 30.125C66.32 31.524 66.808 34.277 65.401 36.274C63.994 38.271 61.223 38.757 59.213 37.358L49.993 30.942" stroke-width="3" stroke-miterlimit="10" stroke-linecap="round" stroke-linejoin="round"/>
<path d="M39.513 45.209L44.029 48.352C46.039 49.751 48.809 49.265 50.217 47.268C51.624 45.271 51.136 42.518 49.126 41.119L46.219 39.096" stroke-width="3" stroke-miterlimit="10" stroke-linecap="round" stroke-linejoin="round"/>
<path d="M40.839 3.18601C37.826 1.72101 34.292 1.59601 31.145 2.90701L26.568 4.81301C23.197 6.21701 19.338 5.80501 16.344 3.72201L13.993 2.08601L2 19.106L10.398 24.949" stroke-width="3" stroke-miterlimit="10" stroke-linecap="round" stroke-linejoin="round"/>
<path d="M56.412 24.629L67.394 32.27C69.404 33.669 72.174 33.183 73.582 31.186C74.989 29.189 74.501 26.436 72.491 25.037" stroke-width="3" stroke-miterlimit="10" stroke-linecap="round" stroke-linejoin="round"/>
<path d="M72.49 25.037L80 19.106L68.007 2.08602L65.656 3.72202C62.662 5.80502 58.802 6.21702 55.432 4.81302L50.855 2.90702C47.14 1.36002 42.885 1.81402 39.586 4.11002L30.212 10.664C28.202 12.062 27.714 14.815 29.121 16.813C30.528 18.81 33.299 19.296 35.309 17.897L43.681 12.078C46.744 9.94902 50.817 9.93802 53.892 12.051L72.49 25.037Z" stroke-width="3" stroke-miterlimit="10" stroke-linecap="round" stroke-linejoin="round"/>
</svg>