<svg xmlns="http://www.w3.org/2000/svg" version="1.1" xmlns:xlink="http://www.w3.org/1999/xlink" xmlns:svgjs="http://svgjs.com/svgjs" viewBox="0 0 14 14" height="14" width="14">
  <g transform="matrix(0.5833333333333334,0,0,0.5833333333333334,0,0)">
    <path d="M 4.5,1.353H12l10.5,10.5" fill="none" stroke-width="1.5" stroke-linecap="round" stroke-linejoin="round"></path>
    <path
      d="M 9.129,4.353H3c-0.828,0-1.5,0.672-1.5,1.5v6.128c0,0.398,0.158,0.78,0.439,1.061 l9.161,9.163c0.586,0.586,1.536,0.586,2.121,0c0.151-0.151,0.269-0.333,0.344-0.534L15,17.853l3.819-1.433 c0.776-0.291,1.169-1.156,0.878-1.931c-0.075-0.2-0.192-0.382-0.344-0.534l-9.164-9.163C9.908,4.511,9.527,4.353,9.129,4.353z "
      fill="none"
      stroke-width="1.5"
      stroke-linecap="round"
      stroke-linejoin="round"></path>
    <path d="M 6,8.478L6,8.478" fill="none" stroke-width="1.5" stroke-linecap="round" stroke-linejoin="round"></path>
    <path
      d="M 6,8.478c-0.207,0-0.375,0.168-0.375,0.375S5.793,9.228,6,9.228S6.375,9.06,6.375,8.853 c0.001-0.207-0.166-0.374-0.373-0.375C6.001,8.478,6.001,8.478,6,8.478"
      fill="none"
      stroke-width="1.5"
      stroke-linecap="round"
      stroke-linejoin="round"></path>
  </g>
</svg>
