<svg width="192" height="192" viewBox="0 0 192 192" fill="none" xmlns="http://www.w3.org/2000/svg">
<path fill-rule="evenodd" clip-rule="evenodd" d="M129.879 39.8787C131.05 38.7071 132.95 38.7071 134.121 39.8787L170.121 75.8787C170.707 76.4644 171 77.2323 171 78C171 78.0009 171 78.0018 171 78.0028C171 78.3926 170.924 78.7824 170.772 79.1483C170.626 79.5022 170.409 79.8337 170.121 80.1213L134.121 116.121C132.95 117.293 131.05 117.293 129.879 116.121C128.707 114.95 128.707 113.05 129.879 111.879L160.757 81H126.001C110.701 81.0048 95.8342 86.0894 83.7359 95.4558C71.6374 104.822 62.9912 117.941 59.1541 132.752C58.7386 134.356 57.1016 135.32 55.4977 134.904C53.8937 134.489 52.9304 132.852 53.3459 131.248C57.5162 115.15 66.9135 100.892 80.0629 90.7114C93.2123 80.5312 109.37 75.005 126 75H160.757L129.879 44.1213C128.707 42.9497 128.707 41.0503 129.879 39.8787ZM24 63C25.6569 63 27 64.3431 27 66V156C27 156.796 27.3161 157.559 27.8787 158.121C28.4413 158.684 29.2043 159 30 159H144C145.657 159 147 160.343 147 162C147 163.657 145.657 165 144 165H30C27.6131 165 25.3239 164.052 23.636 162.364C21.9482 160.676 21 158.387 21 156V66C21 64.3431 22.3431 63 24 63Z"/>
</svg>