<svg width="82" height="82" viewBox="0 0 82 82" fill="none" xmlns="http://www.w3.org/2000/svg">
<path d="M13.503 13.503L68.497 68.497" stroke-width="3" stroke-miterlimit="10" stroke-linecap="round" stroke-linejoin="round"/>
<path d="M41 80C62.5391 80 80 62.5391 80 41C80 19.4609 62.5391 2 41 2C19.4609 2 2 19.4609 2 41C2 62.5391 19.4609 80 41 80Z" stroke-width="3" stroke-miterlimit="10" stroke-linecap="round" stroke-linejoin="round"/>
<path d="M48.383 16.322H33.617C32.029 16.322 30.741 17.61 30.741 19.198C30.741 20.786 32.028 22.074 33.617 22.074H33.954V58.649C33.954 62.533 37.102 65.681 40.986 65.681C44.87 65.681 48.018 62.533 48.018 58.649V22.073H48.383C49.971 22.073 51.259 20.786 51.259 19.197C51.258 17.609 49.971 16.322 48.383 16.322Z" stroke-width="3" stroke-miterlimit="10" stroke-linecap="round" stroke-linejoin="round"/>
</svg>