<svg width="82" height="82" viewBox="0 0 82 82" fill="none" xmlns="http://www.w3.org/2000/svg">
<path d="M7.23801 68.717H1.867V2.12H58.4V18.856H62.286C72.041 18.856 79.949 26.764 79.949 36.519V68.718H74.032" stroke-width="3" stroke-miterlimit="10" stroke-linecap="round" stroke-linejoin="round"/>
<path d="M55.781 68.717H25.487" stroke-width="3" stroke-miterlimit="10" stroke-linecap="round" stroke-linejoin="round"/>
<path d="M58.334 42.1241H73.402V37.8541C73.402 31.0331 67.872 25.5031 61.051 25.5031H58.333V42.1241" stroke-width="3" stroke-miterlimit="10" stroke-linecap="round" stroke-linejoin="round"/>
<path d="M73.9089 70.2359C74.7183 65.2618 71.3421 60.5734 66.3681 59.764C61.394 58.9546 56.7056 62.3308 55.8962 67.3049C55.0868 72.279 58.463 76.9674 63.4371 77.7768C68.4112 78.5861 73.0996 75.2099 73.9089 70.2359Z" stroke-width="3" stroke-miterlimit="10" stroke-linecap="round" stroke-linejoin="round"/>
<path d="M25.3673 70.2346C26.1767 65.2606 22.8005 60.5721 17.8264 59.7628C12.8523 58.9534 8.16393 62.3296 7.35457 67.3037C6.54521 72.2778 9.92139 76.9662 14.8955 77.7755C19.8696 78.5849 24.558 75.2087 25.3673 70.2346Z" stroke-width="3" stroke-miterlimit="10" stroke-linecap="round" stroke-linejoin="round"/>
<path d="M13.723 77.507C9.757 78.165 5.786 79.017 1.866 80.1" stroke-width="3" stroke-miterlimit="10" stroke-linecap="round" stroke-linejoin="round"/>
<path d="M60.373 76.736C49.861 75.524 36.075 74.767 21.728 76.285" stroke-width="3" stroke-miterlimit="10" stroke-linecap="round" stroke-linejoin="round"/>
<path d="M79.768 80.121C79.768 80.121 74.808 78.899 66.793 77.726" stroke-width="3" stroke-miterlimit="10" stroke-linecap="round" stroke-linejoin="round"/>
</svg>