<svg width="82" height="82" viewBox="0 0 82 82" fill="none" xmlns="http://www.w3.org/2000/svg">
<path d="M41 80C62.5391 80 80 62.5391 80 41C80 19.4609 62.5391 2 41 2C19.4609 2 2 19.4609 2 41C2 62.5391 19.4609 80 41 80Z" stroke-width="3" stroke-miterlimit="10" stroke-linecap="round" stroke-linejoin="round"/>
<path d="M18.798 29.8259C18.798 25.8469 22.023 22.6219 26.002 22.6219C29.981 22.6219 33.206 25.8469 33.206 29.8259" stroke-width="3" stroke-miterlimit="10" stroke-linecap="round" stroke-linejoin="round"/>
<path d="M48.794 29.8259C48.794 25.8469 52.019 22.6219 55.998 22.6219C59.977 22.6219 63.202 25.8469 63.202 29.8259" stroke-width="3" stroke-miterlimit="10" stroke-linecap="round" stroke-linejoin="round"/>
<path d="M24.324 52.457C27.673 58.193 33.882 62.054 41.002 62.054C48.123 62.054 54.331 58.192 57.68 52.457" stroke-width="3" stroke-miterlimit="10" stroke-linecap="round" stroke-linejoin="round"/>
</svg>