<svg width="82" height="82" viewBox="0 0 82 82" xmlns="http://www.w3.org/2000/svg">
<path d="M41 80C62.5391 80 80 62.5391 80 41C80 19.4609 62.5391 2 41 2C19.4609 2 2 19.4609 2 41C2 62.5391 19.4609 80 41 80Z" stroke-width="3" stroke-miterlimit="10" stroke-linecap="round" stroke-linejoin="round"/>
<path d="M31.469 50.7291C31.469 56.1021 35.825 60.4581 41.198 60.4581C46.571 60.4581 50.927 56.1021 50.927 50.7291C50.927 45.3561 46.571 41.0001 41.198 41.0001H40.802C35.429 41.0001 31.073 36.6441 31.073 31.2711C31.073 25.8981 35.429 21.5421 40.802 21.5421C46.175 21.5421 50.531 25.8981 50.531 31.2711" stroke-width="3" stroke-miterlimit="10" stroke-linecap="round" stroke-linejoin="round"/>
<path d="M40.802 17.3101V64.6901" stroke-width="3" stroke-miterlimit="10" stroke-linecap="round" stroke-linejoin="round"/>
</svg>