<svg width="82" height="82" viewBox="0 0 82 82" fill="none" xmlns="http://www.w3.org/2000/svg">
<path d="M79.565 17.9359L22.928 32.9929" stroke-width="3" stroke-miterlimit="10" stroke-linecap="round" stroke-linejoin="round"/>
<path d="M12.464 80C18.2431 80 22.928 75.3285 22.928 69.566C22.928 63.8034 18.2431 59.132 12.464 59.132C6.68489 59.132 2 63.8034 2 69.566C2 75.3285 6.68489 80 12.464 80Z" stroke-width="3" stroke-miterlimit="10" stroke-linecap="round" stroke-linejoin="round"/>
<path d="M69.536 69.62C75.3151 69.62 80 64.9485 80 59.186C80 53.4234 75.3151 48.752 69.536 48.752C63.7569 48.752 59.072 53.4234 59.072 59.186C59.072 64.9485 63.7569 69.62 69.536 69.62Z" stroke-width="3" stroke-miterlimit="10" stroke-linecap="round" stroke-linejoin="round"/>
<path d="M80 59.4629V1.93994L22.928 16.9969V68.8359" stroke-width="3" stroke-miterlimit="10" stroke-linecap="round" stroke-linejoin="round"/>
</svg>