<svg width="40px" height="40px" viewBox="0 0 40 40" version="1.1" xmlns="http://www.w3.org/2000/svg" xmlns:xlink="http://www.w3.org/1999/xlink">
	<g fill-rule="nonzero">
		<path d="M20,0 C8.9453125,0 0,8.9453125 0,20 C0,31.0546875 8.9453125,40 20,40 C31.0546875,40 40,31.0546875 40,20 C40,8.9453125 31.0546875,0 20,0 Z M13.8203125,29.015625 C12.3671875,29.015625 11.203125,27.8515625 11.203125,26.3984375 C11.203125,24.9453125 12.3671875,23.78125 13.8203125,23.78125 C15.2734375,23.78125 16.4375,24.9453125 16.4375,26.3984375 C16.4375,27.8515625 15.2734375,29.015625 13.8203125,29.015625 Z M20.3671875,29.015625 C20.3671875,26.5390625 19.421875,24.21875 17.6796875,22.46875 C15.9375,20.7265625 13.609375,19.78125 11.1328125,19.78125 L11.1328125,16 C18.3359375,16 24.1484375,21.890625 24.1484375,29.09375 L20.3671875,29.09375 L20.3671875,29.015625 L20.3671875,29.015625 Z M27.125,29.015625 C27.125,20.21875 20,13.015625 11.1953125,13.015625 L11.1953125,9.234375 C22.03125,9.234375 30.90625,18.109375 30.90625,29.015625 L27.125,29.015625 Z" id="XMLID_7_"></path>
	</g>
</svg>