<svg width="192" height="192" viewBox="0 0 192 192" fill="none" xmlns="http://www.w3.org/2000/svg">
<path d="M60 171C64.9706 171 69 166.971 69 162C69 157.029 64.9706 153 60 153C55.0294 153 51 157.029 51 162C51 166.971 55.0294 171 60 171Z" fill="currentColor" stroke="none"/>
<path d="M138 171C142.971 171 147 166.971 147 162C147 157.029 142.971 153 138 153C133.029 153 129 157.029 129 162C129 166.971 133.029 171 138 171Z" fill="currentColor" stroke="none"/>
<path d="M31.725 54H166.275L146.475 123.3C145.769 125.815 144.256 128.029 142.169 129.6C140.082 131.172 137.537 132.015 134.925 132H63.075C60.4626 132.015 57.9176 131.172 55.8309 129.6C53.7443 128.029 52.2315 125.815 51.525 123.3L24.375 28.35C24.0162 27.0957 23.2584 25.9924 22.2163 25.2075C21.1742 24.4225 19.9046 23.9986 18.6 24H6" stroke="currentColor" stroke-linecap="round" stroke-linejoin="round"/>
<circle class="cart-indicator" cx="96" cy="93" r="15"/>
</svg>