<svg width="24" height="24" viewBox="0 0 24 24" xmlns="http://www.w3.org/2000/svg">
<path d="M22.4513 16.8375C19.665 16.3781 18.3919 13.4925 18.3507 13.3988C18.345 13.3819 18.3319 13.3519 18.3244 13.335C18.24 13.1663 18.1557 12.9281 18.2269 12.7594C18.3488 12.4706 18.9282 12.2869 19.275 12.1763C19.3969 12.1369 19.5132 12.1013 19.6032 12.0656C20.445 11.7319 20.865 11.2969 20.8557 10.7681C20.8482 10.3425 20.5219 9.95251 20.0419 9.78376C19.875 9.71251 19.6838 9.67689 19.4907 9.67689C19.3594 9.67689 19.1607 9.69564 18.9694 9.78376C18.6488 9.93376 18.3675 10.0144 18.1669 10.0238C18.1238 10.0219 18.0863 10.0181 18.0544 10.0125L18.075 9.68251C18.1688 8.19001 18.2869 6.33001 17.7825 5.19939C16.2938 1.86751 13.14 1.60876 12.2082 1.60876L11.7844 1.61251C10.8544 1.61251 7.70629 1.87126 6.22129 5.20126C5.71691 6.33189 5.83316 8.19001 5.92879 9.68439L5.93254 9.74064C5.93816 9.83251 5.94379 9.92439 5.94941 10.0125C5.74129 10.05 5.33441 9.98064 4.91254 9.78376C4.33879 9.51564 3.30566 9.87001 3.16316 10.62C3.09941 10.9519 3.17629 11.5819 4.39879 12.0638C4.49066 12.1013 4.60504 12.1369 4.72879 12.1763C5.07379 12.2869 5.65316 12.4688 5.77504 12.7594C5.84629 12.9281 5.76191 13.1663 5.66254 13.3706C5.61004 13.4925 4.34441 16.3781 1.55254 16.8375C1.19629 16.8956 0.943165 17.2106 0.961914 17.5744C0.967539 17.67 0.991914 17.7656 1.03129 17.8594C1.28441 18.4538 2.20504 18.8625 3.92254 19.1419C3.95254 19.2431 3.98629 19.3931 4.00504 19.4756C4.04066 19.6463 4.08004 19.8188 4.13254 19.9988C4.18316 20.1694 4.35754 20.565 4.90129 20.565C5.06629 20.565 5.24629 20.5294 5.43941 20.4919C5.72441 20.4356 6.08066 20.3663 6.53816 20.3663C6.79316 20.3663 7.05566 20.3888 7.32004 20.4319C7.80754 20.5125 8.24816 20.8256 8.76004 21.1856C9.55879 21.7519 10.4644 22.3913 11.8688 22.3913C11.9063 22.3913 11.9438 22.3894 11.9794 22.3875C12.03 22.3894 12.0825 22.3913 12.135 22.3913C13.5394 22.3913 14.445 21.75 15.2457 21.1856C15.7332 20.8388 16.1944 20.5144 16.6838 20.4319C16.9482 20.3888 17.2107 20.3663 17.4657 20.3663C17.9063 20.3663 18.255 20.4225 18.5663 20.4844C18.7875 20.5275 18.9638 20.5481 19.1269 20.5481C19.4907 20.5481 19.77 20.34 19.8713 19.9913C19.9238 19.815 19.9613 19.6444 19.9988 19.4719C20.0138 19.4081 20.0494 19.2469 20.0813 19.14C21.7988 18.8606 22.7194 18.4519 22.9707 17.8631C23.0119 17.7694 23.0344 17.6719 23.0419 17.5706C23.0607 17.2125 22.8075 16.8975 22.4513 16.8375Z"/>
</svg>