<svg width="82" height="82" viewBox="0 0 82 82" fill="none" xmlns="http://www.w3.org/2000/svg">
<path d="M15.94 80L18.506 30.159L4.869 32.84L2 9.81L26.788 2C26.788 9.665 33.27 15.878 41 15.878C48.73 15.878 55.212 9.665 55.212 2L80 9.81L77.131 32.84L63.494 30.158L66.06 80H15.94Z" stroke-width="3" stroke-miterlimit="10" stroke-linecap="round" stroke-linejoin="round"/>
<path d="M41 44.429V64.038" stroke-width="3" stroke-miterlimit="10" stroke-linecap="round" stroke-linejoin="round"/>
<path d="M52.592 48.543C52.592 54.945 47.402 60.135 41 60.135C34.598 60.135 29.408 54.945 29.408 48.543C29.408 40.028 41 30.673 41 30.673C41 30.673 52.592 40.028 52.592 48.543Z" stroke-width="3" stroke-miterlimit="10" stroke-linecap="round" stroke-linejoin="round"/>
</svg>