<svg width="52" height="82" viewBox="0 0 52 82" fill="none" xmlns="http://www.w3.org/2000/svg">
<path d="M6.52399 79.999H45.725C48.131 79.999 50.082 78.048 50.082 75.642V6.35602C50.082 3.95002 48.131 1.99902 45.725 1.99902H6.52399C4.11799 1.99902 2.16699 3.95002 2.16699 6.35602V75.642C2.16699 78.048 4.11799 79.999 6.52399 79.999Z" stroke-width="3" stroke-miterlimit="10" stroke-linecap="round" stroke-linejoin="round"/>
<path d="M6.87547 67.434H45.3735L45.3735 11.084L6.87547 11.084L6.87547 67.434Z" stroke-width="3" stroke-miterlimit="10" stroke-linecap="round" stroke-linejoin="round"/>
<path d="M23.52 73.687C23.52 75.126 24.686 76.292 26.125 76.292C27.564 76.292 28.73 75.126 28.73 73.687C28.73 72.248 27.564 71.082 26.125 71.082C24.686 71.082 23.52 72.248 23.52 73.687Z" stroke-width="3" stroke-miterlimit="10" stroke-linecap="round" stroke-linejoin="round"/>
</svg>