<svg width="82" height="82" viewBox="0 0 82 82" fill="none" xmlns="http://www.w3.org/2000/svg">
<path d="M41 80C62.5391 80 80 62.5391 80 41C80 19.4609 62.5391 2 41 2C19.4609 2 2 19.4609 2 41C2 62.5391 19.4609 80 41 80Z" stroke-width="3" stroke-miterlimit="10" stroke-linecap="round" stroke-linejoin="round"/>
<path d="M40.993 53.178C40.993 53.178 40.993 28.464 68.3 31.992C68.3 45.852 59.811 59.888 41 59.888C22.189 59.888 13.7 45.852 13.7 31.992C41.007 28.464 41.007 53.178 41.007 53.178V68.3" stroke-width="3" stroke-miterlimit="10" stroke-linecap="round" stroke-linejoin="round"/>
<path d="M52.883 33.574C52.883 33.574 54.619 21.798 41 13.7C27.38 21.798 29.117 33.574 29.117 33.574" stroke-width="3" stroke-miterlimit="10" stroke-linecap="round" stroke-linejoin="round"/>
</svg>