<svg width="82" height="82" viewBox="0 0 82 82" xmlns="http://www.w3.org/2000/svg">
<path d="M41 74.932C59.586 74.932 74.653 59.8547 74.653 41.256C74.653 22.6572 59.586 7.57996 41 7.57996C22.4139 7.57996 7.34698 22.6572 7.34698 41.256C7.34698 59.8547 22.4139 74.932 41 74.932Z" stroke-width="3" stroke-miterlimit="10" stroke-linecap="round" stroke-linejoin="round"/>
<path d="M41 80.052C62.5391 80.052 80 62.5795 80 41.026C80 19.4725 62.5391 2 41 2C19.4609 2 2 19.4725 2 41.026C2 62.5795 19.4609 80.052 41 80.052Z" stroke-width="3" stroke-miterlimit="10" stroke-linecap="round" stroke-linejoin="round"/>
<path d="M41 22.647V41.026H59.375" stroke-width="3" stroke-miterlimit="10" stroke-linecap="round" stroke-linejoin="round"/>
<path d="M41 12.6331V15.3981" stroke-width="3" stroke-miterlimit="10" stroke-linecap="round" stroke-linejoin="round"/>
<path d="M69.093 41.238L66.33 41.269" stroke-width="3" stroke-miterlimit="10" stroke-linecap="round" stroke-linejoin="round"/>
<path d="M40.822 69.6681L40.761 66.9041" stroke-width="3" stroke-miterlimit="10" stroke-linecap="round" stroke-linejoin="round"/>
<path d="M12.097 41.698L14.859 41.605" stroke-width="3" stroke-miterlimit="10" stroke-linecap="round" stroke-linejoin="round"/>
<path d="M54.702 16.399L53.362 18.818" stroke-width="3" stroke-miterlimit="10" stroke-linecap="round" stroke-linejoin="round"/>
<path d="M65.414 55.047L62.982 53.734" stroke-width="3" stroke-miterlimit="10" stroke-linecap="round" stroke-linejoin="round"/>
<path d="M26.914 66.198L28.2 63.75" stroke-width="3" stroke-miterlimit="10" stroke-linecap="round" stroke-linejoin="round"/>
<path d="M15.341 27.799L17.802 29.0579" stroke-width="3" stroke-miterlimit="10" stroke-linecap="round" stroke-linejoin="round"/>
<path d="M65.207 27.147L62.841 28.575" stroke-width="3" stroke-miterlimit="10" stroke-linecap="round" stroke-linejoin="round"/>
<path d="M55.246 65.995L53.792 63.644" stroke-width="3" stroke-miterlimit="10" stroke-linecap="round" stroke-linejoin="round"/>
<path d="M16.315 56.4631L18.648 54.9821" stroke-width="3" stroke-miterlimit="10" stroke-linecap="round" stroke-linejoin="round"/>
<path d="M25.405 17.401L26.911 19.719" stroke-width="3" stroke-miterlimit="10" stroke-linecap="round" stroke-linejoin="round"/>
</svg>