<svg width="24" height="24" viewBox="0 0 24 24" xmlns="http://www.w3.org/2000/svg">
<path d="M20 2H4C2.89844 2 2 2.89844 2 4V20C2 21.1016 2.89844 22 4 22H20C21.1016 22 22 21.1016 22 20V4C22 2.89844 21.1016 2 20 2ZM17 17.875C17 17.9219 16.9805 17.9727 16.9414 18C16.8945 18.0469 15.5156 19 13 19C9.98047 19 10 15.3867 10 15V11H8.17578C8.07813 11 8 10.9219 8 10.8242V9.16406C8 9.08594 8.03906 9.02734 8.10547 9C8.13672 8.98828 11 7.73047 11 5.17578C11 5.07812 11.0781 5 11.1758 5H12.8281C12.9219 5 13 5.07812 13 5.17578V9H15.8242C15.9141 9 16 9.07813 16 9.17578V10.8281C16 10.9219 15.9141 11 15.8242 11H13V15C13 15.0586 12.9062 16.2734 14.1992 16.2734C15.2617 16.2734 16.7188 15.9258 16.7305 15.9258C16.7891 15.8867 16.8555 15.8867 16.9023 15.918C16.9609 15.9453 17 16.0039 17 16.0703V17.875Z"/>
</svg>