<svg width="24" height="24" viewBox="0 0 24 24" fill="none" xmlns="http://www.w3.org/2000/svg">
<rect width="24" height="24" fill="white"/>
<path d="M15.1489 17.9729C13.6596 17.9729 12.4876 16.8265 11.9041 15.5061C11.3207 16.8265 10.1487 17.9729 8.65934 17.9729C7.58457 17.9729 6.57121 17.456 5.87517 16.5604C5.31219 15.8336 5 14.9073 5 13.94C5 12.855 5.50155 12.0821 6.03382 11.2633C6.18224 11.0381 6.33067 10.8027 6.47398 10.557C6.5661 10.3983 6.77081 10.3471 6.92947 10.4393C7.08812 10.5314 7.13931 10.7361 7.04719 10.8948C6.89876 11.1507 6.74011 11.3912 6.58657 11.6266C6.09013 12.3892 5.66022 13.0546 5.66022 13.94C5.66022 14.7537 5.92123 15.5419 6.39209 16.1509C6.9653 16.8879 7.78416 17.3076 8.65422 17.3076C10.1077 17.3076 11.2797 15.808 11.5766 14.3596C11.6124 14.1907 11.7762 14.073 11.9348 14.0935C12.0884 14.1088 12.2061 14.2266 12.2317 14.375C12.5285 15.8183 13.7005 17.3076 15.1489 17.3076C16.0139 17.3076 16.8379 16.8879 17.4111 16.1509C17.7284 15.7466 18.2402 14.9226 18.1481 13.9758C18.0559 13.0392 17.5851 12.2459 17.0477 11.3349C16.9146 11.1046 16.7713 10.8692 16.6331 10.6235C16.541 10.4649 16.5973 10.2601 16.7611 10.1731C16.9197 10.081 17.1244 10.1373 17.2115 10.3011C17.3496 10.5416 17.4827 10.7719 17.6158 10.9971C18.1736 11.9388 18.7008 12.8294 18.8083 13.9092C18.8953 14.7844 18.5882 15.7261 17.9331 16.5604C17.237 17.456 16.2237 17.9729 15.1489 17.9729ZM14.3198 12.7116C14.4478 12.5837 14.4478 12.3687 14.3198 12.2408L12.6155 10.5365C12.2266 10.1475 11.5919 10.1475 11.203 10.5365L9.49869 12.2408C9.37075 12.3687 9.37075 12.5837 9.49869 12.7116C9.62664 12.8396 9.84159 12.8396 9.96954 12.7116L11.6738 11.0074C11.8018 10.8743 12.0167 10.8743 12.1447 11.0074L13.849 12.7116C13.9155 12.7782 13.9974 12.8089 14.0844 12.8089C14.1714 12.8089 14.2533 12.7782 14.3198 12.7116ZM14.3198 9.46686C14.4478 9.33891 14.4478 9.12396 14.3198 8.99601L12.6155 7.29172C12.2266 6.90276 11.5919 6.90276 11.203 7.29172L9.49869 8.99601C9.37075 9.12396 9.37075 9.33891 9.49869 9.46686C9.62664 9.59481 9.84159 9.59481 9.96954 9.46686L11.6738 7.76258C11.8018 7.62951 12.0167 7.62951 12.1447 7.76258L13.849 9.46686C13.9155 9.53339 13.9974 9.5641 14.0844 9.5641C14.1714 9.5641 14.2533 9.53339 14.3198 9.46686Z" fill="black"/>
</svg>
