<svg width="72" height="82" viewBox="0 0 72 82" fill="none" xmlns="http://www.w3.org/2000/svg">
<path d="M12.051 64.621L7.64499 65.365C6.18899 65.611 4.80799 64.63 4.56199 63.173L1.81299 46.9C1.56699 45.443 2.54799 44.063 4.00499 43.817L8.41099 43.073L12.051 64.621Z" stroke-width="3" stroke-miterlimit="10" stroke-linecap="round" stroke-linejoin="round"/>
<path d="M21.716 67.24L15.387 68.309C13.93 68.555 12.55 67.574 12.304 66.117L8.159 41.577C7.913 40.121 8.894 38.74 10.351 38.494L16.68 37.425C18.136 37.179 19.517 38.16 19.763 39.617L23.908 64.157C24.154 65.613 23.173 66.993 21.716 67.24Z" stroke-width="3" stroke-miterlimit="10" stroke-linecap="round" stroke-linejoin="round"/>
<path d="M63.822 43.521C64.336 39.873 64.608 34.324 64.608 31.981C64.608 15.418 51.011 1.98999 34.237 1.98999C17.464 1.98999 3.86597 15.417 3.86597 31.981C3.86597 34.323 4.13797 39.873 4.65197 43.521" stroke-width="3" stroke-miterlimit="10" stroke-linecap="round" stroke-linejoin="round"/>
<path d="M56.425 64.621L60.831 65.365C62.287 65.611 63.668 64.63 63.914 63.173L66.663 46.9C66.909 45.443 65.928 44.063 64.471 43.817L60.065 43.073L56.425 64.621Z" stroke-width="3" stroke-miterlimit="10" stroke-linecap="round" stroke-linejoin="round"/>
<path d="M46.76 67.24L53.089 68.309C54.545 68.555 55.926 67.574 56.172 66.117L60.317 41.577C60.563 40.121 59.582 38.74 58.125 38.494L51.796 37.425C50.34 37.179 48.959 38.16 48.713 39.617L44.568 64.157C44.322 65.613 45.304 66.993 46.76 67.24Z" stroke-width="3" stroke-miterlimit="10" stroke-linecap="round" stroke-linejoin="round"/>
<path d="M38.586 80.01H29.89C27.354 80.01 25.279 77.935 25.279 75.4V74.868C25.279 72.332 27.354 70.258 29.89 70.258H38.586C41.122 70.258 43.196 72.333 43.196 74.868V75.4C43.196 77.935 41.122 80.01 38.586 80.01Z" stroke-width="3" stroke-miterlimit="10" stroke-linecap="round" stroke-linejoin="round"/>
<path d="M43.6119 75.133H60.6169C64.7999 75.133 68.3469 71.879 68.9379 67.497L70.1819 59.625C70.5039 57.24 68.9369 55.03 66.6829 54.689L65.4849 54.54" stroke-width="3" stroke-miterlimit="10" stroke-linecap="round" stroke-linejoin="round"/>
</svg>