<svg width="192" height="192" viewBox="0 0 192 192" fill="none" xmlns="http://www.w3.org/2000/svg">
<path d="M96 168C135.765 168 168 135.765 168 96C168 56.2355 135.765 24 96 24C56.2355 24 24 56.2355 24 96C24 135.765 56.2355 168 96 168Z" stroke="currentColor" stroke-linecap="round" stroke-linejoin="round"/>
<path d="M96 120C112.569 120 126 106.569 126 90C126 73.4315 112.569 60 96 60C79.4315 60 66 73.4315 66 90C66 106.569 79.4315 120 96 120Z" stroke="currentColor" stroke-linecap="round" stroke-linejoin="round"/>
<path d="M47.8501 149.55C52.3644 140.658 59.2528 133.19 67.7517 127.973C76.2505 122.757 86.0279 119.995 96.0001 119.995C105.972 119.995 115.75 122.757 124.249 127.973C132.747 133.19 139.636 140.658 144.15 149.55" stroke="currentColor" stroke-linecap="round" stroke-linejoin="round"/>
</svg>