<svg width="82" height="82" viewBox="0 0 82 82" fill="none" xmlns="http://www.w3.org/2000/svg">
<path d="M41 80C62.5391 80 80 62.5391 80 41C80 19.4609 62.5391 2 41 2C19.4609 2 2 19.4609 2 41C2 62.5391 19.4609 80 41 80Z" stroke-width="3" stroke-miterlimit="10" stroke-linecap="round" stroke-linejoin="round"/>
<path d="M31.054 78.72C24.021 77.104 8.87499 66.006 10.5 42.631C12.125 19.256 41 15.631 41 15.631V8.5C41 8.5 52.788 10.71 61.444 26.826C52.788 42.942 41 45.153 41 45.153V36.848C41 36.848 29.212 39.058 20.556 55.174C29.212 71.29 41 73.5 41 73.5V66.25C41 66.25 69.875 62.625 71.5 39.25C73.125 15.875 58.583 5.125 50.934 3.278" stroke-width="3" stroke-miterlimit="10" stroke-linecap="round" stroke-linejoin="round"/>
</svg>