<svg width="82" height="82" viewBox="0 0 82 82" fill="none" xmlns="http://www.w3.org/2000/svg">
<path d="M55.751 44.921C64.343 30.886 83.178 40.304 79.539 56.208C75.978 71.77 55.751 80 55.751 80C55.751 80 35.522 71.77 31.963 56.208C28.324 40.304 47.157 30.885 55.751 44.921Z" stroke-width="3" stroke-miterlimit="10" stroke-linecap="round" stroke-linejoin="round"/>
<path d="M73.656 40.142C73.703 39.391 73.727 38.633 73.727 37.87C73.726 18.06 57.67 2 37.863 2C18.056 2 2 18.06 2 37.87C2 57.681 18.056 73.74 37.863 73.74C39.91 73.74 41.916 73.568 43.869 73.239" stroke-width="3" stroke-miterlimit="10" stroke-linecap="round" stroke-linejoin="round"/>
<path d="M27.249 3.63699C27.249 3.63699 37.747 11.298 32.752 18.027C27.757 24.756 26.84 26.489 26.534 33.014C26.228 39.539 24.763 52.874 5.10901 52.221" stroke-width="3" stroke-miterlimit="10" stroke-linecap="round" stroke-linejoin="round"/>
<path d="M52.176 5.104C52.176 5.104 40.681 10.278 43.637 17.823C46.593 25.367 51.456 20.924 55.767 24.858C61.577 30.16 68.247 28.516 71.704 26.583" stroke-width="3" stroke-miterlimit="10" stroke-linecap="round" stroke-linejoin="round"/>
</svg>