<svg width="82" height="82" viewBox="0 0 82 82" fill="none" xmlns="http://www.w3.org/2000/svg">
<path d="M51.451 32.632C66.64 49.009 58.465 78.869 58.465 78.869C58.465 78.869 28.116 84.822 13.83 69.419C1.11501 55.71 2.01401 18.004 2.01401 18.004C2.01401 18.004 38.737 18.923 51.451 32.632Z" stroke-width="3" stroke-miterlimit="10" stroke-linecap="round" stroke-linejoin="round"/>
<path d="M59.895 48.619C65.359 47.382 69.46 45.255 73.421 40.359C82.108 29.624 79.691 2 79.691 2C79.691 2 52.8 4.625 44.114 15.361C41.795 18.227 40.555 21.058 39.79 24.639" stroke-width="3" stroke-miterlimit="10" stroke-linecap="round" stroke-linejoin="round"/>
<path d="M57.766 78.117L2.785 18.945" stroke-width="3" stroke-miterlimit="10" stroke-linecap="round" stroke-linejoin="round"/>
<path d="M52.03 32.789L78.802 3.063" stroke-width="3" stroke-miterlimit="10" stroke-linecap="round" stroke-linejoin="round"/>
</svg>