<svg width="82" height="82" viewBox="0 0 82 82" fill="none" xmlns="http://www.w3.org/2000/svg">
<path d="M13.503 13.503L68.497 68.497" stroke-width="3" stroke-miterlimit="10" stroke-linecap="round" stroke-linejoin="round"/>
<path d="M41 80C62.5391 80 80 62.5391 80 41C80 19.4609 62.5391 2 41 2C19.4609 2 2 19.4609 2 41C2 62.5391 19.4609 80 41 80Z" stroke-width="3" stroke-miterlimit="10" stroke-linecap="round" stroke-linejoin="round"/>
<path d="M41 48.352C45.0598 48.352 48.351 45.0609 48.351 41.001C48.351 36.9412 45.0598 33.65 41 33.65C36.9401 33.65 33.649 36.9412 33.649 41.001C33.649 45.0609 36.9401 48.352 41 48.352Z" stroke-width="3" stroke-miterlimit="10" stroke-linecap="round" stroke-linejoin="round"/>
<path d="M33.941 38.397C30.423 38.977 25.552 36.981 21.595 33.025C18.442 29.872 18.442 24.76 21.595 21.607C24.636 18.566 29.499 18.458 32.67 21.283" stroke-width="3" stroke-miterlimit="10" stroke-linecap="round" stroke-linejoin="round"/>
<path d="M34.167 44.151C32.089 47.049 27.234 49.082 21.639 49.082C17.18 49.082 13.566 45.467 13.566 41.008C13.566 36.708 16.928 33.192 21.168 32.948" stroke-width="3" stroke-miterlimit="10" stroke-linecap="round" stroke-linejoin="round"/>
<path d="M38.396 48.06C38.976 51.578 36.98 56.449 33.024 60.406C29.871 63.559 24.759 63.559 21.607 60.406C18.566 57.365 18.458 52.502 21.283 49.331" stroke-width="3" stroke-miterlimit="10" stroke-linecap="round" stroke-linejoin="round"/>
<path d="M44.15 47.833C47.048 49.911 49.081 54.766 49.081 60.361C49.081 64.82 45.466 68.435 41.008 68.435C36.707 68.435 33.192 65.072 32.948 60.833" stroke-width="3" stroke-miterlimit="10" stroke-linecap="round" stroke-linejoin="round"/>
<path d="M48.059 43.605C51.577 43.025 56.448 45.021 60.405 48.977C63.558 52.13 63.558 57.242 60.405 60.395C57.364 63.436 52.501 63.544 49.33 60.719" stroke-width="3" stroke-miterlimit="10" stroke-linecap="round" stroke-linejoin="round"/>
<path d="M47.833 37.85C49.911 34.952 54.766 32.919 60.361 32.919C64.82 32.919 68.434 36.534 68.434 40.993C68.434 45.293 65.071 48.809 60.832 49.053" stroke-width="3" stroke-miterlimit="10" stroke-linecap="round" stroke-linejoin="round"/>
<path d="M43.604 33.942C43.024 30.424 45.02 25.553 48.976 21.596C52.129 18.443 57.241 18.443 60.393 21.596C63.434 24.637 63.542 29.5 60.717 32.671" stroke-width="3" stroke-miterlimit="10" stroke-linecap="round" stroke-linejoin="round"/>
<path d="M37.85 34.168C34.952 32.09 32.919 27.235 32.919 21.64C32.919 17.181 36.534 13.566 40.992 13.566C45.293 13.566 48.808 16.929 49.052 21.168" stroke-width="3" stroke-miterlimit="10" stroke-linecap="round" stroke-linejoin="round"/>
</svg>