<svg width="80" height="89" viewBox="0 0 80 89" xmlns="http://www.w3.org/2000/svg">
<path d="M69.6978 50.4661C75.3415 34.178 66.7125 16.3988 50.4244 10.7551C34.1363 5.11143 16.3571 13.7404 10.7134 30.0285C5.06969 46.3166 13.6987 64.0959 29.9868 69.7396C46.2749 75.3833 64.0541 66.7543 69.6978 50.4661Z" stroke-width="3" stroke-miterlimit="10" stroke-linecap="round" stroke-linejoin="round"/>
<path d="M62.5532 48.7255C67.2332 36.3818 61.0206 22.5813 48.6769 17.9013C36.3332 13.2213 22.5327 19.4339 17.8527 31.7776C13.1726 44.1213 19.3853 57.9217 31.729 62.6018C44.0727 67.2818 57.8731 61.0692 62.5532 48.7255Z" stroke-width="3" stroke-miterlimit="10" stroke-linecap="round" stroke-linejoin="round"/>
<path d="M65.903 57.984L75.372 73.803L60.287 74.257L53.501 86.895L44.116 71.218" stroke-width="3" stroke-miterlimit="10" stroke-linecap="round" stroke-linejoin="round"/>
<path d="M14.0971 58.051L4.62805 73.87L19.7131 74.324L26.4991 86.962L35.9511 71.172" stroke-width="3" stroke-miterlimit="10" stroke-linecap="round" stroke-linejoin="round"/>
</svg>