<svg width="192" height="192" viewBox="0 0 192 192" fill="none" xmlns="http://www.w3.org/2000/svg">
<path d="M36 108C42.309 107.98 48.5596 109.208 54.3922 111.613C60.2248 114.019 65.5241 117.554 69.9853 122.015C74.4465 126.476 77.9814 131.775 80.3866 137.608C82.7918 143.44 84.0198 149.691 84 156" stroke="currentColor" stroke-linecap="round" stroke-linejoin="round"/>
<path d="M36 72C58.2782 72 79.6439 80.85 95.397 96.603C111.15 112.356 120 133.722 120 156" stroke="currentColor" stroke-linecap="round" stroke-linejoin="round"/>
<path d="M36 36C51.7614 35.9703 67.3724 39.0635 81.9317 45.1009C96.4909 51.1383 109.71 60.0002 120.825 71.175C132 82.2901 140.862 95.509 146.899 110.068C152.936 124.628 156.03 140.239 156 156" stroke="currentColor" stroke-linecap="round" stroke-linejoin="round"/>
<path d="M39 162C43.9706 162 48 157.971 48 153C48 148.029 43.9706 144 39 144C34.0294 144 30 148.029 30 153C30 157.971 34.0294 162 39 162Z" fill="currentColor"/>
</svg>