<svg class="icon icon-play" width="30px" height="30px" viewBox="0 0 30 30" version="1.1" xmlns="http://www.w3.org/2000/svg" xmlns:xlink="http://www.w3.org/1999/xlink">
    <path d="M11.5902439,8.25365854 L22.0682927,15.0439024 L11.5902439,21.8341463 L11.5902439,8.25365854 Z M14.9853659,29.9707317 C6.73170732,29.9707317 0,23.2390244 0,14.9853659 C0,6.73170732 6.73170732,0 14.9853659,0 C23.2390244,0 29.9707317,6.73170732 29.9707317,14.9853659 C29.9707317,23.2390244 23.2390244,29.9707317 14.9853659,29.9707317 Z M14.9853659,1.17073171 C7.37560976,1.17073171 1.17073171,7.37560976 1.17073171,14.9853659 C1.17073171,22.595122 7.37560976,28.8 14.9853659,28.8 C22.595122,28.8 28.8,22.595122 28.8,14.9853659 C28.8,7.37560976 22.595122,1.17073171 14.9853659,1.17073171 Z" id="Shape"></path>
</svg>