<svg width="58" height="82" viewBox="0 0 58 82" xmlns="http://www.w3.org/2000/svg">
<path d="M39.997 34.94C37.623 38.486 33.584 40.82 29 40.82C24.416 40.82 20.377 38.485 18.003 34.94" stroke-width="3" stroke-miterlimit="10" stroke-linecap="round" stroke-linejoin="round"/>
<path d="M35.993 23.693C34.483 25.948 31.915 27.432 29 27.432C26.085 27.432 23.517 25.947 22.007 23.693" stroke-width="3" stroke-miterlimit="10" stroke-linecap="round" stroke-linejoin="round"/>
<path d="M29 19.152V79.785" stroke-width="3" stroke-miterlimit="10" stroke-linecap="round" stroke-linejoin="round"/>
<path d="M49.485 25.418C49.417 25.403 49.349 25.396 49.281 25.382C49.359 25.324 49.44 25.274 49.517 25.213C53.412 22.115 54.051 16.456 50.945 12.572C47.839 8.68801 42.164 8.05001 38.269 11.148C38.214 11.191 38.167 11.24 38.114 11.285C38.117 11.188 38.129 11.093 38.129 10.996C38.129 6.02801 34.091 2.00101 29.109 2.00101C24.127 2.00101 20.089 6.02801 20.089 10.996C20.089 11.066 20.098 11.133 20.099 11.202C20.025 11.139 19.958 11.071 19.881 11.01C15.986 7.91301 10.311 8.55001 7.20497 12.434C4.09897 16.318 4.73797 21.978 8.63297 25.075C8.68797 25.118 8.74597 25.154 8.80097 25.195C8.70497 25.214 8.60997 25.223 8.51497 25.245C3.65797 26.35 0.619971 31.173 1.72797 36.016C2.83697 40.859 7.67197 43.89 12.529 42.784C12.597 42.769 12.661 42.745 12.728 42.728C12.683 42.814 12.631 42.894 12.589 42.982C10.428 47.458 12.314 52.834 16.802 54.989C21.29 57.144 26.741 55.205 28.903 50.729C28.933 50.666 28.955 50.602 28.984 50.539C29.023 50.628 29.054 50.718 29.097 50.806C31.258 55.282 36.589 57.221 41.077 55.066C45.565 52.91 47.452 47.535 45.29 43.059C45.26 42.996 45.222 42.939 45.191 42.878C45.285 42.903 45.375 42.935 45.471 42.957C50.328 44.062 55.163 41.032 56.272 36.189C57.38 31.346 54.342 26.524 49.485 25.418Z" stroke-width="3" stroke-miterlimit="10" stroke-linecap="round" stroke-linejoin="round"/>
<path d="M23.36 80H34.64" stroke-width="3" stroke-miterlimit="10" stroke-linecap="round" stroke-linejoin="round"/>
</svg>