<svg class="icon icon-filter" width="20px" height="13px" viewBox="0 0 20 13" version="1.1" xmlns="http://www.w3.org/2000/svg" xmlns:xlink="http://www.w3.org/1999/xlink">
        <path d="M18.5,2.75 C18.9142136,2.75 19.25,3.08578644 19.25,3.5 C19.25,3.87969577 18.9678461,4.19349096 18.6017706,4.24315338 L18.5,4.25 L1.5,4.25 C1.08578644,4.25 0.75,3.91421356 0.75,3.5 C0.75,3.12030423 1.03215388,2.80650904 1.39822944,2.75684662 L1.5,2.75 L18.5,2.75 Z" id="Line"  fill-rule="nonzero"></path>
        <path d="M18.5,8.75 C18.9142136,8.75 19.25,9.08578644 19.25,9.5 C19.25,9.87969577 18.9678461,10.193491 18.6017706,10.2431534 L18.5,10.25 L1.5,10.25 C1.08578644,10.25 0.75,9.91421356 0.75,9.5 C0.75,9.12030423 1.03215388,8.80650904 1.39822944,8.75684662 L1.5,8.75 L18.5,8.75 Z" id="Line" fill-rule="nonzero"></path>
        <path d="M5.5,0.25 C5.87969577,0.25 6.19349096,0.532153882 6.24315338,0.898229443 L6.25,1 L6.25,6 C6.25,6.41421356 5.91421356,6.75 5.5,6.75 C5.12030423,6.75 4.80650904,6.46784612 4.75684662,6.10177056 L4.75,6 L4.75,1 C4.75,0.585786438 5.08578644,0.25 5.5,0.25 Z" id="Line" fill-rule="nonzero"></path>
        <path d="M14.5,6.25 C14.8796958,6.25 15.193491,6.53215388 15.2431534,6.89822944 L15.25,7 L15.25,12 C15.25,12.4142136 14.9142136,12.75 14.5,12.75 C14.1203042,12.75 13.806509,12.4678461 13.7568466,12.1017706 L13.75,12 L13.75,7 C13.75,6.58578644 14.0857864,6.25 14.5,6.25 Z" id="Line" fill-rule="nonzero"></path>
</svg>