<svg width="24" height="24" viewBox="0 0 24 24" fill="none" xmlns="http://www.w3.org/2000/svg">
<rect width="24" height="24" fill="white"/>
<path d="M14.2282 17.9987C14.1433 17.9987 14.0633 17.9687 13.9983 17.9035L9.33489 13.3031C9.11997 13.0876 9 12.8019 9 12.4962C9 12.1905 9.11997 11.9049 9.33489 11.6894L14.0033 7.09396C14.1333 6.96868 14.3382 6.96868 14.4632 7.09396C14.5881 7.21925 14.5881 7.42973 14.4632 7.55501L9.79973 12.1555C9.70976 12.2457 9.65479 12.3659 9.65479 12.4962C9.65479 12.6265 9.70476 12.7468 9.79973 12.837L14.4632 17.4375C14.5931 17.5628 14.5931 17.7682 14.4632 17.8985C14.3982 17.9637 14.3182 17.9937 14.2332 17.9937L14.2282 17.9987Z" fill="black"/>
</svg>
